<?xml version="1.0" encoding="UTF-8" standalone="no"?>
<!-- Created with Inkscape (http://www.inkscape.org/) -->

<svg
   width="962.59717"
   height="895.0553"
   viewBox="0 0 254.68715 236.81671"
   version="1.1"
   id="svg1"
   inkscape:version="1.2.2 (732a01da63, 2022-12-09)"
   sodipodi:docname="bucket.svg"
   xmlns:inkscape="http://www.inkscape.org/namespaces/inkscape"
   xmlns:sodipodi="http://sodipodi.sourceforge.net/DTD/sodipodi-0.dtd"
   xmlns="http://www.w3.org/2000/svg"
   xmlns:svg="http://www.w3.org/2000/svg">
  <sodipodi:namedview
     id="namedview1"
     pagecolor="#4f4f4f"
     bordercolor="#ffffff"
     borderopacity="1"
     inkscape:showpageshadow="0"
     inkscape:pageopacity="0"
     inkscape:pagecheckerboard="1"
     inkscape:deskcolor="#4f4f4f"
     inkscape:document-units="px"
     inkscape:zoom="0.70092593"
     inkscape:cx="395.90488"
     inkscape:cy="462.2457"
     inkscape:window-width="1920"
     inkscape:window-height="1137"
     inkscape:window-x="1592"
     inkscape:window-y="-8"
     inkscape:window-maximized="1"
     inkscape:current-layer="layer1"
     showgrid="false" />
  <defs
     id="defs1" />
  <g
     inkscape:label="Layer 1"
     inkscape:groupmode="layer"
     id="layer1"
     transform="translate(-96.435943,-90.244825)">
    <g
       id="g2350"
       transform="translate(27.539215,49.743476)"
       style="fill-opacity:1;stroke:#000000;stroke-opacity:1">
      <g
         id="g2345"
         transform="rotate(45,191.2574,174.09583)"
         style="fill-opacity:1;stroke:#000000;stroke-opacity:1">
        <path
           id="rect449"
           style="fill-opacity:1;stroke:#000000;stroke-width:0;stroke-linecap:round;stroke-linejoin:round;stroke-opacity:1"
           d="m 116.41666,84.137497 c -10.9934,0 -19.843745,8.85033 -19.843745,19.843753 v 25.37726 H 53.247396 c -8.245069,0 -14.882812,6.63774 -14.882812,14.88281 0,8.24507 6.637743,14.88281 14.882812,14.88281 h 43.325519 v 85.08628 c 0,10.99341 8.850345,19.84375 19.843745,19.84375 h 108.47917 c 10.9934,0 19.84374,-8.85034 19.84374,-19.84375 V 103.98125 c 0,-10.993423 -8.85034,-19.843753 -19.84374,-19.843753 z m 16.53646,29.765623 h 75.40625 c 3.66446,0 6.61458,2.95012 6.61458,6.61458 v 26.2878 l -86.08621,86.08622 c -1.55111,-1.20841 -2.5492,-3.09039 -2.5492,-5.21777 V 120.5177 c 0,-3.66446 2.95012,-6.61458 6.61458,-6.61458 z" />
      </g>
      <path
         id="path1561"
         style="fill-opacity:1;stroke:#000000;stroke-width:13.2292;stroke-linecap:round;stroke-linejoin:round;stroke-dasharray:none;stroke-opacity:1"
         d="m 292.68521,195.07518 -23.82131,34.02043 a 41.531231,41.531231 0 0 0 0.009,0.006 26.458332,26.458332 0 0 0 -1.24887,28.39935 26.458332,26.458332 0 0 0 36.14275,9.68442 26.458332,26.458332 0 0 0 9.68442,-36.14275 z" />
    </g>
  </g>
</svg>
