<?xml version="1.0" encoding="UTF-8" standalone="no"?>
<!-- Created with Inkscape (http://www.inkscape.org/) -->

<svg
   width="961.56177"
   height="941.22095"
   viewBox="0 0 254.4132 249.03137"
   version="1.1"
   id="svg1"
   inkscape:version="1.4.2 (ebf0e940d0, 2025-05-08)"
   sodipodi:docname="move.svg"
   xmlns:inkscape="http://www.inkscape.org/namespaces/inkscape"
   xmlns:sodipodi="http://sodipodi.sourceforge.net/DTD/sodipodi-0.dtd"
   xmlns="http://www.w3.org/2000/svg"
   xmlns:svg="http://www.w3.org/2000/svg">
  <sodipodi:namedview
     id="namedview1"
     pagecolor="#4f4f4f"
     bordercolor="#ffffff"
     borderopacity="1"
     inkscape:showpageshadow="0"
     inkscape:pageopacity="0"
     inkscape:pagecheckerboard="1"
     inkscape:deskcolor="#4f4f4f"
     inkscape:document-units="px"
     inkscape:zoom="0.35046297"
     inkscape:cx="483.64597"
     inkscape:cy="515.03302"
     inkscape:window-width="1920"
     inkscape:window-height="1008"
     inkscape:window-x="0"
     inkscape:window-y="0"
     inkscape:window-maximized="1"
     inkscape:current-layer="layer1"
     showgrid="false" />
  <defs
     id="defs1" />
  <g
     inkscape:label="Layer 1"
     inkscape:groupmode="layer"
     id="layer1"
     transform="translate(-96.572915,-84.137497)">
    <path
       d="m 223.72672,84.201902 c -4.51192,0 -11.41707,2.653667 -14.86612,5.840174 l -33.18134,33.182034 c -4.51546,4.77833 -5.04337,13.00751 -2.39322,18.84768 2.39322,6.37089 9.55529,11.41461 16.19297,11.41461 l 18.31519,-0.28155 -0.35194,38.75682 h -39.28757 l -0.35195,-15.9276 c 0,-6.63626 -5.04336,-13.53823 -10.88213,-16.19295 -6.10623,-2.65367 -15.39757,-2.92114 -19.90949,1.85827 l -33.18134,33.18238 c -3.44905,3.18508 -4.247957,10.08708 -4.247957,14.33469 0,4.51264 2.393207,11.41462 5.574797,14.60007 l 33.18132,33.18203 c 4.77941,4.77835 13.00788,5.04372 19.11412,2.3897 6.10623,-2.3897 11.41355,-9.55669 11.14959,-16.19296 l -0.35194,-18.05124 h 39.02361 l 0.35194,39.02221 -18.31519,-0.28156 c -6.63768,-0.28155 -13.80327,5.04371 -16.19297,11.41462 -2.63959,5.83981 -2.11167,14.06897 2.39323,18.84732 l 33.18133,33.18239 c 3.44905,3.1851 10.3542,5.83982 14.86613,5.83982 3.9805,0 10.88213,-1.06288 14.06722,-4.24728 l 33.44881,-33.18202 c 4.51193,-4.77835 4.51193,-14.06934 1.8653,-19.9095 -2.63958,-6.10554 -9.55529,-11.14926 -16.45692,-11.14926 l -15.92901,-0.28156 v -39.28756 h 38.75613 l -0.35195,18.05088 c -0.35194,6.63663 5.04337,13.80397 11.14961,16.19298 6.10623,2.65365 14.33469,2.38969 19.1141,-2.38972 l 33.18133,-33.18237 c 3.1675,-3.1851 5.5748,-10.08709 5.5748,-14.60007 0,-4.24726 -0.80948,-11.14925 -3.98401,-14.33435 l -33.44528,-33.18239 c -4.51545,-4.77799 -13.80327,-4.51262 -19.90951,-1.85826 -5.84227,2.65367 -10.88564,9.55671 -10.88564,16.19297 l -0.35194,15.92724 h -39.02361 v -39.02184 l 15.929,-0.28156 c 6.90164,0 13.80327,-5.04371 16.45694,-11.14889 2.63958,-5.84018 2.63958,-15.1315 -1.86532,-19.90951 L 237.45256,88.38477 c -3.2027,-3.185099 -10.09025,-4.247272 -14.07073,-4.247272 z"
       id="path82"
       style="fill:#000000;stroke-width:0.265457" />
  </g>
</svg>
