<?xml version="1.0" encoding="UTF-8" standalone="no"?>
<!-- Created with Inkscape (http://www.inkscape.org/) -->

<svg
   width="1000"
   height="1000"
   viewBox="0 0 264.5833 264.58333"
   version="1.1"
   id="svg1"
   inkscape:version="1.2.2 (732a01da63, 2022-12-09)"
   sodipodi:docname="sculpt.svg"
   xmlns:inkscape="http://www.inkscape.org/namespaces/inkscape"
   xmlns:sodipodi="http://sodipodi.sourceforge.net/DTD/sodipodi-0.dtd"
   xmlns="http://www.w3.org/2000/svg"
   xmlns:svg="http://www.w3.org/2000/svg">
  <sodipodi:namedview
     id="namedview1"
     pagecolor="#4f4f4f"
     bordercolor="#ffffff"
     borderopacity="1"
     inkscape:showpageshadow="0"
     inkscape:pageopacity="0"
     inkscape:pagecheckerboard="1"
     inkscape:deskcolor="#4f4f4f"
     inkscape:document-units="px"
     inkscape:zoom="0.5"
     inkscape:cx="649"
     inkscape:cy="382"
     inkscape:window-width="1920"
     inkscape:window-height="1137"
     inkscape:window-x="1592"
     inkscape:window-y="-8"
     inkscape:window-maximized="1"
     inkscape:current-layer="g1"
     showguides="true"
     showgrid="false" />
  <defs
     id="defs1" />
  <g
     inkscape:label="Layer 1"
     inkscape:groupmode="layer"
     id="layer1"
     transform="translate(-90.805757,-110.59586)">
    <g
       id="g1"
       transform="matrix(0.96715517,0,0,0.96715517,9.90897,-39.207178)">
      <rect
         style="stroke-width:29.9612;paint-order:stroke fill markers"
         id="rect355"
         width="164.14117"
         height="164.14117"
         x="-390.15933"
         y="175.28955"
         ry="26.149836"
         transform="rotate(-90)" />
      <path
         id="path1048"
         style="stroke-width:29.9612;paint-order:stroke fill markers"
         d="m 146.72568,171.3045 c -14.48698,0 -26.14985,11.66288 -26.14985,26.14985 v 111.84148 c 0,13.74105 10.49483,24.9335 23.93779,26.05047 v -83.17822 c 0,-31.00477 25.92101,-56.92579 56.92578,-56.92579 h 83.17876 c -1.11696,-13.44297 -12.30995,-23.93779 -26.051,-23.93779 z" />
      <g
         id="g1023"
         transform="matrix(0.82531241,0,0,0.82531326,8.0639717,98.028227)">
        <g
           id="rect350"
           transform="translate(7.9334904,-6.5656472)">
          <path
             style="color:#000000;stroke-linecap:round;stroke-linejoin:round;-inkscape-stroke:none;paint-order:stroke fill markers"
             d="m 156.69336,331.48828 a 5.1650663,5.1650663 0 0 0 -5.62695,1.11914 l -50.59571,50.5957 a 5.1650663,5.1650663 0 0 0 3.65235,8.81641 h 50.59375 a 5.1650663,5.1650663 0 0 0 5.16601,-5.16601 v -50.59375 a 5.1650663,5.1650663 0 0 0 -3.18945,-4.77149 z m -7.14063,17.24024 v 32.96093 h -32.96289 z"
             id="path1013" />
          <path
             style="color:#000000;stroke-width:10.3291;stroke-linecap:round;stroke-linejoin:round;-inkscape-stroke:none;paint-order:stroke fill markers"
             d="m 154.71744,336.25944 -2e-5,50.59503 -50.59502,1e-5 z"
             id="path1015" />
        </g>
        <g
           id="rect352"
           transform="rotate(-45,-3.9586921,-12.859394)">
          <path
             style="color:#000000;stroke-linecap:round;stroke-linejoin:round;-inkscape-stroke:none;paint-order:stroke fill markers"
             d="m -173.57812,294.21484 a 5.6673667,5.6673667 0 0 0 -5.66602,5.66602 v 56.59375 a 5.6673667,5.6673667 0 0 0 5.66602,5.66601 h 18.86523 a 5.6673667,5.6673667 0 0 0 5.66602,-5.66601 v -56.59375 a 5.6673667,5.6673667 0 0 0 -5.66602,-5.66602 z m 5.66796,11.33399 h 7.5293 v 45.25976 h -7.5293 z"
             id="path1007" />
          <path
             style="color:#000000;stroke-width:11.3336;stroke-linecap:round;stroke-linejoin:round;-inkscape-stroke:none;paint-order:stroke fill markers"
             d="m -173.57784,299.88168 h 18.86431 v 56.59293 h -18.86431 z"
             id="path1009" />
        </g>
      </g>
    </g>
  </g>
</svg>
