<?xml version="1.0" encoding="UTF-8" standalone="no"?>
<!-- Created with Inkscape (http://www.inkscape.org/) -->

<svg
   width="680"
   height="1002.6257"
   viewBox="0 0 179.91665 265.27804"
   version="1.1"
   id="svg1"
   inkscape:version="1.2.2 (732a01da63, 2022-12-09)"
   sodipodi:docname="erase-overlay.svg"
   xmlns:inkscape="http://www.inkscape.org/namespaces/inkscape"
   xmlns:sodipodi="http://sodipodi.sourceforge.net/DTD/sodipodi-0.dtd"
   xmlns="http://www.w3.org/2000/svg"
   xmlns:svg="http://www.w3.org/2000/svg">
  <sodipodi:namedview
     id="namedview1"
     pagecolor="#4f4f4f"
     bordercolor="#ffffff"
     borderopacity="1"
     inkscape:showpageshadow="0"
     inkscape:pageopacity="0"
     inkscape:pagecheckerboard="1"
     inkscape:deskcolor="#4f4f4f"
     inkscape:document-units="px"
     inkscape:zoom="0.70092593"
     inkscape:cx="392.33817"
     inkscape:cy="559.26023"
     inkscape:window-width="1920"
     inkscape:window-height="1137"
     inkscape:window-x="1592"
     inkscape:window-y="-8"
     inkscape:window-maximized="1"
     inkscape:current-layer="layer1"
     showgrid="false" />
  <defs
     id="defs1" />
  <g
     inkscape:label="Layer 1"
     inkscape:groupmode="layer"
     id="layer1"
     transform="translate(-124.61875,-95.51458)">
    <path
       id="path48"
       style="stroke-width:0.264583"
       d="M 165.62916 95.51458 C 164.83542 95.51458 164.30625 95.514581 163.5125 95.779163 C 159.80833 96.572913 157.42708 100.54166 158.22083 104.24583 L 169.59791 164.30624 C 169.8625 167.48124 173.0375 170.39166 176.47708 170.65624 L 253.20624 170.65624 C 256.38124 170.39166 259.55624 167.48124 259.82083 164.30624 L 270.93333 106.62708 C 272.52082 100.27709 262.20207 95.250002 258.23333 100.27708 L 237.59583 123.03125 L 221.45625 99.48333 C 218.81041 95.514584 212.46041 95.514584 209.81458 99.48333 L 193.675 123.03125 L 170.92083 97.89583 C 169.59791 96.572914 167.48125 95.51458 165.62916 95.51458 z M 241.81624 194.98189 C 239.12745 195.06424 236.80208 197.54453 236.80208 200.02499 L 236.80208 208.22707 C 236.80208 209.14929 236.77746 210.05213 236.74162 210.93337 L 252.34945 195.32554 C 250.47969 195.12905 248.96666 194.99791 247.91458 194.99791 L 247.38541 194.99791 L 242.35833 194.99791 C 242.17643 194.98137 241.99549 194.9764 241.81624 194.98189 z M 181.76875 194.99791 C 179.3875 194.99791 175.68332 195.52707 170.65625 196.05624 C 165.36458 196.58541 158.74999 197.11458 152.4 197.90832 L 129.11667 200.55416 C 128.05833 200.81874 127 201.34791 126.20625 202.14166 C 125.14792 203.19999 124.61875 204.52291 124.61875 206.11041 L 124.61875 236.27291 L 124.61875 266.69999 C 124.61875 268.55207 125.67708 270.13958 127.26458 271.1979 L 142.875 279.39999 L 155.31042 285.74999 L 155.31042 292.36457 L 179.65415 268.02084 C 171.96744 264.06827 169.82828 263.24671 168.53958 262.73124 C 167.21666 262.20207 167.21666 261.93749 161.39583 259.02707 L 151.34167 253.47082 L 151.34167 238.91874 L 151.34167 225.42499 L 155.83958 224.89582 C 160.60208 224.36666 165.62916 223.30832 166.95208 223.30832 L 167.48125 225.16041 C 170.39165 233.89165 173.56667 239.44792 178.06458 243.94582 C 182.03333 247.91457 188.11876 250.82499 194.20416 253.47082 L 216.70666 230.96832 C 216.0142 230.97197 215.48477 230.98124 214.57708 230.98124 C 207.69792 230.98124 207.6979 231.24582 203.99375 229.39374 C 198.96666 227.01249 194.46875 221.72081 193.41041 218.81041 C 192.88125 217.48749 192.35208 212.98957 192.35208 208.22707 L 192.35208 200.02499 C 192.0875 199.23124 191.82291 198.17291 191.29375 197.64374 C 190.23541 196.05624 188.64791 194.99791 186.79583 194.99791 L 181.76875 194.99791 z M 304.53541 218.70809 L 209.55 313.6935 L 209.55 336.81457 L 207.9625 336.81457 C 205.05208 336.81457 200.025 336.02082 197.37916 335.49165 L 196.85 335.49165 C 195.24401 335.00986 192.58993 334.12735 190.08193 333.16156 L 171.52183 351.72167 C 208.34116 365.236 242.65673 363.72886 271.19791 346.60415 C 272.52083 345.54582 273.57916 343.69373 273.57916 341.84165 L 273.57916 312.20832 L 273.57916 285.74999 L 286.27916 279.39999 L 301.88957 271.1979 C 302.94791 270.66874 303.47707 269.6104 304.00624 268.81665 C 304.27082 268.02291 304.27082 267.49374 304.53541 266.69999 L 304.53541 236.27291 L 304.53541 218.70809 z " />
    <path
       id="rect3843"
       style="stroke-width:8.28937;stroke-linecap:round;stroke-linejoin:round"
       d="M 71.727311 332.53402 C 68.985101 329.79181 65.191892 328.10017 60.989445 328.10017 L 47.718939 328.10053 L -118.26415 328.10017 C -118.26893 328.10017 -118.27362 328.10053 -118.2784 328.10053 L -131.53465 328.10053 C -139.93955 328.10053 -146.70564 334.86663 -146.70564 343.27152 C -146.70564 351.67641 -139.93918 358.44288 -131.53429 358.44288 L -118.26524 358.44251 L 47.718939 358.44251 L 60.989445 358.44288 C 69.394338 358.44288 76.1608 351.67641 76.1608 343.27152 C 76.1608 339.06907 74.469521 335.27623 71.727311 332.53402 z "
       transform="rotate(-45)" />
  </g>
</svg>
