<?xml version="1.0" encoding="UTF-8" standalone="no"?>
<!-- Created with Inkscape (http://www.inkscape.org/) -->

<svg
   width="571"
   height="1079.3993"
   viewBox="0 0 151.07709 285.59106"
   version="1.1"
   id="svg2373"
   inkscape:version="1.2.2 (732a01da63, 2022-12-09)"
   sodipodi:docname="flatten.svg"
   xmlns:inkscape="http://www.inkscape.org/namespaces/inkscape"
   xmlns:sodipodi="http://sodipodi.sourceforge.net/DTD/sodipodi-0.dtd"
   xmlns="http://www.w3.org/2000/svg"
   xmlns:svg="http://www.w3.org/2000/svg">
  <sodipodi:namedview
     id="namedview2375"
     pagecolor="#505050"
     bordercolor="#ffffff"
     borderopacity="1"
     inkscape:showpageshadow="0"
     inkscape:pageopacity="0"
     inkscape:pagecheckerboard="1"
     inkscape:deskcolor="#505050"
     inkscape:document-units="mm"
     showgrid="false"
     inkscape:zoom="0.5946522"
     inkscape:cx="108.46676"
     inkscape:cy="632.30237"
     inkscape:window-width="1920"
     inkscape:window-height="1137"
     inkscape:window-x="1592"
     inkscape:window-y="-8"
     inkscape:window-maximized="1"
     inkscape:current-layer="layer1" />
  <defs
     id="defs2370" />
  <g
     inkscape:label="Layer 1"
     inkscape:groupmode="layer"
     id="layer1"
     transform="translate(1.28854,140.58511)">
    <path
       id="path49"
       style="stroke-width:0.264583"
       d="m -1.28854,26.531123 v 21.801253 c 0.1763847,3.880524 1.58752677,7.231977 4.2333333,10.054167 2.6458073,2.82219 5.997261,4.233333 10.0541667,4.233333 0.285655,0 0.566094,-0.01009 0.844393,-0.02481 V 37.091719 L 0.93302982,30.308153 C -0.40000184,29.419468 -1.28854,28.086323 -1.28854,26.531123 Z m 151.07708,0 c -0.22219,0.666516 -0.22224,1.111154 -0.44441,1.777669 -0.44435,0.666515 -0.88846,1.555023 -1.77716,1.999361 l -12.91032,6.783566 v 25.486816 c 0.36412,0.02484 0.73244,0.04134 1.10898,0.04134 4.05685,0 7.40842,-1.411143 10.05416,-4.233333 2.64583,-2.82219 3.96875,-6.173643 3.96875,-10.054167 z M 36.546877,86.878533 v 41.710037 c -0.176387,4.76244 1.411143,8.64306 4.7625,11.64167 3.351354,2.99851 7.231996,4.5861 11.641666,4.7625 4.40968,0.17638 8.290304,-1.41121 11.641667,-4.7625 3.351356,-3.35139 5.027083,-7.23195 5.027083,-11.64167 V 94.674439 C 59.436029,93.811281 48.878382,91.384195 38.062546,87.411317 37.557479,87.235737 37.052575,87.060476 36.546877,86.878533 Z m 75.670833,1.324983 c -1.31863,0.522772 -2.64816,1.01242 -3.98787,1.470195 -9.179628,3.44447 -18.916839,5.217705 -29.085047,5.347477 v 33.567382 c -0.176377,4.76244 1.411153,8.64306 4.7625,11.64167 3.351357,2.99851 7.231981,4.5861 11.641667,4.7625 4.40968,0.17638 8.29028,-1.41121 11.64167,-4.7625 3.35129,-3.35139 5.02708,-7.23195 5.02708,-11.64167 z"
       sodipodi:nodetypes="ccsscccccccccscsccccscsccccccccscsc" />
    <path
       style="color:#000000;display:inline;stroke-width:13.2292;-inkscape-stroke:none"
       d="m 97.122879,-47.300719 c -3.480469,-0.0025 -4.210419,2.152297 -4.210419,4.235156 v 3.800581 c 0,3.999095 -0.444339,7.776024 -0.888686,8.886887 -0.888686,2.443885 -4.887793,6.88734 -8.886893,8.886886 -3.110395,1.333032 -3.110413,1.333033 -8.886883,1.333033 -5.776472,0 -5.776488,0.222169 -8.886885,-1.333033 -4.221277,-1.999546 -7.998198,-6.443001 -8.886892,-8.886886 -0.444339,-1.110863 -0.888687,-4.887792 -0.888687,-8.886887 v -3.800581 c -0.222169,-0.666515 -0.444346,-1.555203 -0.888685,-1.999549 -0.888695,-1.333032 -2.221728,-2.221722 -3.77693,-2.221722 h -4.221268 c -20.595912,0.222914 -31.184458,0.0956 -44.2122696,1.578859 -0.8886943,0.222169 -1.77737188,0.666517 -2.44388842,1.333033 -0.88868588,0.888685 -1.33303298,1.999551 -1.33303298,3.332583 v 25.327627 25.5497996 c 0,1.5552024 0.88868587,2.8882424 2.22171896,3.7769274 l 13.10816204,6.887338 10.442087,5.332131 v 22.217219 18.748218 c 0.222169,1.777381 1.555211,3.332583 3.110413,3.9991 34.880995,15.774216 67.540372,15.996386 94.200989,0 1.11087,-0.888678 1.99957,-2.443897 1.99957,-3.9991 V 48.048683 25.831464 l 10.66426,-5.332131 13.10815,-6.887338 c 0.8887,-0.444338 1.33304,-1.333033 1.77739,-1.999549 0.22217,-0.666516 0.22215,-1.110861 0.44434,-1.7773784 V -15.714732 -41.042359 c 0,-2.221725 -1.77739,-4.443447 -3.9991,-4.665616 -15.42376,-0.384213 -18.22689,-0.556272 -43.54575,-1.578859 h -0.44435 -4.221264 c -0.152743,-0.01389 -0.455197,-0.164487 -0.455197,-0.01389 z m -62.863873,20.699551 0.444347,1.555205 c 2.44388,7.331674 5.109954,11.997307 8.886885,15.7742246 3.332582,3.3325794 8.442553,5.7764811 13.552499,7.9981979 4.665615,1.99954757 8.664715,3.5547585 12.885992,3.7769269 V 35.607041 62.575633 h -1.333033 c -2.443896,0 -6.665166,-0.666517 -8.886892,-1.110863 H 59.364465 C 57.142737,60.79825 52.477114,59.243047 50.033234,57.910014 L 47.367167,56.799151 47.14499,37.692347 v -0.444345 l 0.222177,-22.302973 c 0,-1.333032 -0.444347,-2.666067 -1.555211,-3.332583 C 45.589787,11.390276 45.589787,11.1681 45.367618,11.1681 38.480274,7.6133452 36.702903,6.9468239 35.592039,6.502485 34.481176,6.0581385 34.481167,5.8359702 29.593391,3.392075 L 21.150845,-1.2735405 V -13.49301 -26.269839 c 4.367753,-0.148856 8.809485,-0.218284 13.108161,-0.331329 z"
       id="path2931"
       sodipodi:nodetypes="sssccsccsccsccsscscccccccscccccccsccccssccsccccscccccccccsccccc" />
    <path
       id="path3055"
       style="fill-opacity:1;stroke:none;stroke-width:13.7561;stroke-linecap:round;stroke-linejoin:round;stroke-dasharray:none;stroke-opacity:1"
       d="m 41.815289,-78.721161 a 32.940624,33.052753 0 0 0 32.434713,27.393677 32.940624,33.052753 0 0 0 32.452278,-27.393677 z" />
    <path
       id="path48"
       style="stroke-width:0.222922"
       d="m 33.004457,-140.58511 c -0.668765,0 -1.114596,-1.9e-4 -1.783353,0.22273 -3.12091,0.66874 -5.127409,4.01302 -4.458643,7.13393 l 9.585461,36.778415 c 0.222928,2.675059 2.898047,5.127142 5.796029,5.350061 h 32.980933 32.980936 c 2.89797,-0.222919 5.5731,-2.675002 5.79602,-5.350061 l 9.58547,-36.778415 c 0.66876,-3.12091 -1.33773,-6.46519 -4.45865,-7.13393 -0.66875,-0.22292 -1.11458,-0.22273 -1.78335,-0.22273 -1.56046,0 -3.34351,0.89147 -4.45813,2.00608 l -19.171435,17.61853 -13.598137,-16.28063 c -2.743367,-3.36999 -7.640219,-3.07718 -9.785449,0 l -13.598136,16.28063 -19.17144,-17.61853 c -1.114613,-1.11461 -2.897666,-2.00608 -4.458126,-2.00608 z"
       sodipodi:nodetypes="scccccccccsccccccs" />
  </g>
</svg>
