<?xml version="1.0" encoding="UTF-8" standalone="no"?>
<!-- Created with Inkscape (http://www.inkscape.org/) -->

<svg
   width="645.64258"
   height="1081.2731"
   viewBox="0 0 170.82625 286.08684"
   version="1.1"
   id="svg1"
   inkscape:version="1.2.2 (732a01da63, 2022-12-09)"
   sodipodi:docname="flip-front-back.svg"
   xmlns:inkscape="http://www.inkscape.org/namespaces/inkscape"
   xmlns:sodipodi="http://sodipodi.sourceforge.net/DTD/sodipodi-0.dtd"
   xmlns="http://www.w3.org/2000/svg"
   xmlns:svg="http://www.w3.org/2000/svg">
  <sodipodi:namedview
     id="namedview1"
     pagecolor="#4f4f4f"
     bordercolor="#ffffff"
     borderopacity="1"
     inkscape:showpageshadow="0"
     inkscape:pageopacity="0"
     inkscape:pagecheckerboard="1"
     inkscape:deskcolor="#4f4f4f"
     inkscape:document-units="px"
     inkscape:zoom="0.70092593"
     inkscape:cx="133.39498"
     inkscape:cy="536.43328"
     inkscape:window-width="1920"
     inkscape:window-height="1137"
     inkscape:window-x="1592"
     inkscape:window-y="-8"
     inkscape:window-maximized="1"
     inkscape:current-layer="layer1"
     showgrid="false" />
  <defs
     id="defs1" />
  <g
     inkscape:label="Layer 1"
     inkscape:groupmode="layer"
     id="layer1"
     transform="translate(-145.96473,-151.3418)">
    <path
       id="path49"
       style="stroke-width:0.264583"
       d="m 229.7131,151.34269 c -8.87799,-0.062 -16.12821,3.13161 -21.75061,9.58081 -5.9972,6.87917 -9.17222,14.7285 -9.525,23.54792 -0.35275,8.81943 2.82225,16.58058 9.525,23.28333 6.70278,6.70278 14.55211,9.96597 23.54792,9.78958 8.99581,-0.17639 16.75696,-3.43958 23.28333,-9.78958 6.52639,-6.34997 9.78959,-14.11112 9.78959,-23.28333 -0.70555,-9.87775 -3.96876,-17.72709 -9.78959,-23.54792 -5.82081,-5.82081 -13.58196,-8.99583 -23.28333,-9.525 -0.60634,-0.0331 -1.20544,-0.0517 -1.79731,-0.0558 z M 184.15,222.30683 c -7.9375,0 -14.64028,2.73404 -20.10834,8.20209 -5.46803,5.46803 -8.20208,12.17085 -8.20208,20.10833 v 61.38333 c 0.17639,3.88056 1.58752,7.23195 4.23333,10.05417 2.64583,2.8222 5.99722,4.23333 10.05417,4.23333 4.05695,0 7.40834,-1.41113 10.05417,-4.23333 2.64581,-2.82222 3.96875,-6.17361 3.96875,-10.05417 v -51.85833 h 9.525 V 376.0654 c -0.17639,4.7625 1.41112,8.64305 4.76249,11.64167 3.35139,2.99858 7.23197,4.5861 11.64167,4.7625 1.45201,0.0581 2.84543,-0.0792 4.18269,-0.4036 l 11.9848,-11.98479 c 0.33364,-1.286 0.50126,-2.62442 0.50126,-4.01578 v -55.38266 h 9.525 v 51.22684 c 1.76478,-0.68365 3.65408,-1.04491 5.57692,-1.03921 0.27087,8e-4 0.54254,0.009 0.81442,0.0243 l -5.2e-4,-5.2e-4 a 3.9691466,3.9691466 0 0 1 0.002,0 c 1.71349,0.0966 3.4007,0.48309 4.98833,1.13895 0.005,0.002 0.01,0.002 0.0139,0.004 a 3.9691466,3.9691466 0 0 1 0.002,0 c 5.70848,2.36631 9.45165,7.96889 9.45265,14.14849 v 0.002 5.80895 c 2.6212,-0.68768 5.02094,-2.11414 7.19594,-4.28914 3.35139,-3.35139 5.02709,-7.23195 5.02709,-11.64167 V 260.14225 h 9.26041 v 51.85833 c 0.17639,3.88056 1.58752,7.23195 4.23333,10.05417 2.64583,2.8222 5.99724,4.23333 10.05417,4.23333 4.05695,0 7.40834,-1.41113 10.05417,-4.23333 2.64581,-2.82222 3.96875,-6.17361 3.96875,-10.05417 v -61.38333 c 0,-7.93748 -2.73403,-14.6403 -8.20209,-20.10833 -5.46803,-5.46805 -12.17085,-8.20209 -20.10833,-8.20209 z" />
    <path
       id="path519"
       style="color:#000000;stroke-linecap:round;stroke-linejoin:round;-inkscape-stroke:none"
       d="m 184.15,354.39334 c -3.26205,0.80824 -6.37397,1.7009 -9.30796,2.67891 -7.54966,2.51652 -13.98209,5.52044 -19.17816,9.61543 -5.19607,4.09499 -9.69915,10.07739 -9.69915,17.55655 0,7.47916 4.50308,13.46364 9.69915,17.55862 5.19607,4.09496 11.6285,7.09839 19.17816,9.61491 8.89202,2.96401 19.38013,5.16682 30.93919,6.47971 -3.90632,-5.93354 -3.26075,-14.08833 1.93735,-19.28719 l 0.36277,-0.36277 c -10.49153,-1.19967 -19.76378,-3.15609 -26.9937,-5.56607 -19.64186,-5.98392 -14.77799,-11.86724 0,-16.87287 0.98773,-0.32924 2.02698,-0.64644 3.0887,-0.95808 H 184.15 Z m 94.45624,0 v 20.45715 h -0.0248 c 1.06172,0.31164 2.10097,0.62884 3.0887,0.95808 20.63407,6.56247 16.27971,11.35833 0,16.87287 -11.89238,3.96414 -29.30414,6.69957 -48.5991,6.8523 v 3.66179 l -6.24665,6.24716 6.24665,6.24665 v 3.59564 c 21.07489,-0.14429 40.13784,-2.96543 54.84316,-7.86722 7.54963,-2.51652 13.98361,-5.51995 19.17971,-9.61491 5.19607,-4.09498 9.69708,-10.07946 9.69708,-17.55862 0,-7.47916 -4.50101,-13.46156 -9.69708,-17.55655 -5.1961,-4.09499 -11.63008,-7.09891 -19.17971,-9.61543 -2.93402,-0.97801 -6.04603,-1.87067 -9.30796,-2.67891 z" />
    <path
       style="color:#000000;stroke-width:13.2292;stroke-linecap:round;stroke-linejoin:round;-inkscape-stroke:none"
       d="m 242.07101,381.46145 a 4.7349286,4.7349286 0 0 0 -3.61374,1.37821 l -23.25439,23.25388 a 4.7349286,4.7349286 0 0 0 0,6.69572 l 23.25439,23.25387 a 4.7349286,4.7349286 0 0 0 8.08168,-3.3476 v -46.50827 a 4.7349286,4.7349286 0 0 0 -2.92179,-4.37286 4.7349286,4.7349286 0 0 0 -1.54615,-0.35295 z"
       id="path2759" />
  </g>
</svg>
