<?xml version="1.0" encoding="UTF-8" standalone="no"?>
<!-- Created with Inkscape (http://www.inkscape.org/) -->

<svg
   width="571"
   height="1107.3009"
   viewBox="0 0 151.07707 292.97338"
   version="1.1"
   id="svg1"
   inkscape:version="1.2.2 (732a01da63, 2022-12-09)"
   sodipodi:docname="flip-left-right.svg"
   xmlns:inkscape="http://www.inkscape.org/namespaces/inkscape"
   xmlns:sodipodi="http://sodipodi.sourceforge.net/DTD/sodipodi-0.dtd"
   xmlns="http://www.w3.org/2000/svg"
   xmlns:svg="http://www.w3.org/2000/svg">
  <sodipodi:namedview
     id="namedview1"
     pagecolor="#4f4f4f"
     bordercolor="#ffffff"
     borderopacity="1"
     inkscape:showpageshadow="0"
     inkscape:pageopacity="0"
     inkscape:pagecheckerboard="1"
     inkscape:deskcolor="#4f4f4f"
     inkscape:document-units="px"
     inkscape:zoom="0.99125896"
     inkscape:cx="178.0564"
     inkscape:cy="685.99632"
     inkscape:window-width="1920"
     inkscape:window-height="1137"
     inkscape:window-x="1592"
     inkscape:window-y="-8"
     inkscape:window-maximized="1"
     inkscape:current-layer="layer1"
     showgrid="false" />
  <defs
     id="defs1" />
  <g
     inkscape:label="Layer 1"
     inkscape:groupmode="layer"
     id="layer1"
     transform="translate(-155.83932,-151.3418)">
    <path
       d="m 306.9164,250.61724 v 55.51117 c 0,3.88056 -1.32292,7.23195 -3.96875,10.05417 -2.64583,2.82222 -5.99722,4.23333 -10.05417,4.23333 -4.05695,0 -7.40834,-1.41111 -10.05417,-4.23333 -2.64583,-2.82222 -4.05694,-6.17361 -4.23333,-10.05417 v -45.98617 h -9.26042 l 2.7e-4,111.18539 c 1e-5,4.40973 -1.6757,8.29028 -5.02709,11.64167 -3.35139,3.35139 -7.23194,4.93889 -11.64166,4.7625 -4.40973,-0.17639 -8.29028,-1.76389 -11.64166,-4.7625 -3.35139,-2.99861 -4.93889,-6.87917 -4.7625,-11.64167 l -1e-5,-50.64489 h -9.525 l 1e-5,50.64489 c 0,4.40973 -1.67569,8.29028 -5.02708,11.64167 -3.35139,3.35139 -7.23195,4.93889 -11.64167,4.7625 -4.40972,-0.17639 -8.29028,-1.76389 -11.64167,-4.7625 -3.35139,-2.99861 -4.93889,-6.87917 -4.7625,-11.64167 l -2.7e-4,-111.18539 h -9.52499 v 45.98617 c 0,3.88056 -1.32292,7.23195 -3.96875,10.05417 -2.64583,2.82222 -5.99722,4.23333 -10.05417,4.23333 -4.05695,0 -7.40834,-1.41111 -10.05417,-4.23333 -2.64583,-2.82222 -4.05694,-6.17361 -4.23333,-10.05417 v -55.51117 c 0,-7.9375 2.73403,-14.64028 8.20208,-20.10833 5.46806,-5.46805 12.17084,-8.20208 20.10834,-8.20208 h 94.45624 c 7.9375,0 14.64028,2.73403 20.10833,8.20208 5.46806,5.46805 8.20209,12.17083 8.20209,20.10833 z m -42.33334,-66.14583 c 0,9.17223 -3.26319,16.93334 -9.78958,23.28333 -6.52639,6.35 -14.2875,9.6132 -23.28333,9.78959 -8.99583,0.17639 -16.84514,-3.08681 -23.54792,-9.78959 -6.70277,-6.70277 -9.87777,-14.46388 -9.525,-23.28333 0.35278,-8.81944 3.52778,-16.66874 9.525,-23.54791 5.99723,-6.87917 13.84653,-10.05417 23.54792,-9.525 9.70139,0.52917 17.4625,3.70417 23.28333,9.525 5.82083,5.82083 9.08403,13.67014 9.78958,23.54791 z"
       id="path49-6"
       style="stroke-width:0.264583"
       sodipodi:nodetypes="ssssscccsssscccsssscccsssscsssssscsssssssc" />
    <g
       id="g2346"
       transform="matrix(0.76411419,0,0,0.76411419,-13.830835,64.264751)">
      <path
         style="color:#000000;stroke-width:17.7764;stroke-linecap:round;stroke-linejoin:round;-inkscape-stroke:none"
         d="m 288.00258,435.4886 a 6.3624457,6.3624457 0 0 0 -4.74314,-2.1241 l -44.19018,-4.9e-4 a 6.3624457,6.3624457 0 0 0 -6.36199,6.36199 l 5e-4,44.19017 a 6.3624457,6.3624457 0 0 0 10.85961,4.49812 l 44.19019,-44.19018 a 6.3624457,6.3624457 0 0 0 1.37874,-6.93107 6.3624457,6.3624457 0 0 0 -1.13373,-1.80444 z"
         id="path2759" />
      <path
         style="color:#000000;stroke-width:17.7764;stroke-linecap:round;stroke-linejoin:round;-inkscape-stroke:none"
         d="m 353.80906,435.4886 a 6.3624457,6.3624457 0 0 1 4.74313,-2.1241 l 44.1902,-4.9e-4 a 6.3624457,6.3624457 0 0 1 6.36199,6.36199 l -4.9e-4,44.19017 a 6.3624457,6.3624457 0 0 1 -10.85962,4.49812 l -44.1902,-44.19018 a 6.3624457,6.3624457 0 0 1 -1.37874,-6.93107 6.3624457,6.3624457 0 0 1 1.13373,-1.80444 z"
         id="path2759-8" />
      <path
         id="path1490"
         style="stroke-width:45.2673;stroke-linecap:round;stroke-linejoin:round"
         d="m 232.70727,450.98545 v 6.05028 a 115.2022,110.27171 0 0 0 88.19855,40.33811 115.2022,110.27171 0 0 0 88.19856,-40.33811 v -6.05028 h -40.83307 a 82.346433,78.822125 0 0 1 -44.42859,14.8792 82.346433,78.822125 0 0 1 -2.9369,0.0289 82.346433,78.822125 0 0 1 -2.9369,-0.0289 82.346433,78.822125 0 0 1 -44.42858,-14.8792 z" />
    </g>
  </g>
</svg>
