<?xml version="1.0" encoding="UTF-8" standalone="no"?>
<!-- Created with Inkscape (http://www.inkscape.org/) -->

<svg
   width="1154.2067"
   height="1088.9594"
   viewBox="0 0 305.38382 288.12051"
   version="1.1"
   id="svg1"
   inkscape:version="1.2.2 (732a01da63, 2022-12-09)"
   sodipodi:docname="swap-body-overlay.svg"
   xmlns:inkscape="http://www.inkscape.org/namespaces/inkscape"
   xmlns:sodipodi="http://sodipodi.sourceforge.net/DTD/sodipodi-0.dtd"
   xmlns="http://www.w3.org/2000/svg"
   xmlns:svg="http://www.w3.org/2000/svg">
  <sodipodi:namedview
     id="namedview1"
     pagecolor="#4f4f4f"
     bordercolor="#ffffff"
     borderopacity="1"
     inkscape:showpageshadow="0"
     inkscape:pageopacity="0"
     inkscape:pagecheckerboard="1"
     inkscape:deskcolor="#4f4f4f"
     inkscape:document-units="px"
     inkscape:zoom="0.12390737"
     inkscape:cx="-149.30508"
     inkscape:cy="871.61886"
     inkscape:window-width="1920"
     inkscape:window-height="1137"
     inkscape:window-x="1592"
     inkscape:window-y="-8"
     inkscape:window-maximized="1"
     inkscape:current-layer="layer1"
     showgrid="false" />
  <defs
     id="defs1" />
  <g
     inkscape:label="Layer 1"
     inkscape:groupmode="layer"
     id="layer1"
     transform="translate(-174.46503,-182.47146)">
    <path
       d="m 355.5847,182.47146 c -0.71008,0 -1.18346,0 -1.89354,0.23669 -3.31371,0.71008 -5.44396,4.26049 -4.73387,7.5742 l 10.17782,48.71857 c 0.2367,2.84032 3.07702,5.44395 6.15404,5.68064 h 68.64114 c 2.84033,-0.23669 5.68065,-2.84032 5.91735,-5.68064 l 9.94113,-46.58832 c 1.42017,-5.68065 -7.81089,-10.17783 -11.36129,-5.68065 l -18.4621,18.32953 -14.43831,-19.03961 c -2.36694,-3.55041 -8.04759,-3.55041 -10.41453,0 l -14.4383,19.03961 -20.35566,-20.45977 c -1.18347,-1.18348 -3.07701,-2.13025 -4.73388,-2.13025 z m 14.43832,78.04186 c -2.13024,0 -5.44395,0.47338 -9.94113,0.94677 -4.73388,0.47339 -10.65121,0.94677 -16.33186,1.65686 l -20.82904,2.36694 c -0.94678,0.23669 -1.89355,0.71008 -2.60363,1.42016 -0.94677,0.94677 -1.42016,2.13024 -1.42016,3.5504 v 26.98308 27.21976 c 0,1.65686 0.94677,3.07702 2.36693,4.02379 l 13.96493,7.33751 11.1246,5.68064 v 21.13671 26.50968 c 0.23669,1.89356 1.65685,3.55041 3.31371,4.26049 37.16089,16.80525 71.95486,17.04194 100.35809,0 1.18348,-0.94677 2.13025,-2.60363 2.13025,-4.26049 v -26.50968 -21.13671 l 11.36129,-5.68064 13.96492,-7.33751 c 0.94678,-0.47338 1.42016,-1.42016 1.89355,-2.13024 0.23669,-0.71008 0.23669,-1.18347 0.47339,-1.89355 v -27.21976 -26.98308 c 0,-2.36694 -1.89355,-4.73387 -4.26048,-4.97056 l -20.59235,-2.13025 c -5.91734,-0.71008 -11.36129,-1.42016 -15.85847,-1.89355 -4.49718,-0.47339 -8.04759,-0.94677 -9.94113,-0.94677 h -0.47339 -4.49718 c -2.60363,-0.2367 -4.97056,2.13024 -4.97056,4.49718 v 7.3375 c 0,4.26048 -0.47339,8.28428 -0.94679,9.46775 -0.94677,2.60362 -5.20725,7.3375 -9.46774,9.46774 -3.3137,1.42016 -3.3137,1.42016 -9.46774,1.42016 -6.15404,0 -6.15404,0.23669 -9.46774,-1.42016 -4.49719,-2.13024 -8.52097,-6.86412 -9.46775,-9.46774 -0.47339,-1.18347 -0.94678,-5.20727 -0.94678,-9.46775 v -7.3375 c -0.23669,-0.71008 -0.47339,-1.65686 -0.94677,-2.13025 -0.94678,-1.42016 -2.36694,-2.36693 -4.02379,-2.36693 z m -13.25484,25.32621 0.47339,1.65687 c 2.60362,7.81089 5.44394,12.78145 9.46774,16.80524 3.5504,3.5504 8.99436,6.15404 14.43831,8.52097 4.97056,2.13024 9.23105,3.7871 13.72823,4.02379 v 32.73469 35.26736 h -1.42016 c -2.60363,0 -7.10081,-0.71008 -9.46775,-1.18347 h -0.47338 c -2.36694,-0.71008 -7.33751,-2.36694 -9.94113,-3.7871 l -2.84033,-1.18347 -0.2367,-20.35565 v -0.47339 l 0.2367,-27.76413 c 0,-1.42016 -0.47339,-2.84032 -1.65686,-3.5504 -0.23669,-0.23669 -0.23669,-0.47338 -0.47338,-0.47338 -7.33751,-3.78711 -9.23105,-4.49719 -10.41452,-4.97057 -1.18347,-0.47339 -1.18347,-0.71008 -6.39073,-3.31372 l -8.99435,-4.97056 v -13.01815 -12.07137 l 4.02378,-0.47339 c 4.26049,-0.47339 8.75766,-1.42017 9.94114,-1.42017 z"
       id="path48"
       style="stroke-width:0.236693"
       sodipodi:nodetypes="scccccccccccccsscccsscscccccccscccccccsccssccssccsccsccssccsccccscccccccccscccccc" />
    <path
       d="m 301.68459,274.8635 v 51.68991 c 0,3.26775 -1.11401,6.08991 -3.34202,8.46645 -2.22801,2.37655 -5.05016,3.56482 -8.46645,3.56482 -3.41629,0 -6.23845,-1.18827 -8.46646,-3.56482 -2.22801,-2.37654 -3.41628,-5.1987 -3.56481,-8.46645 v -43.66906 h -7.79805 v 109.3373 c 0,3.71337 -1.41108,6.98112 -4.23323,9.80327 -2.82215,2.82215 -6.0899,4.15896 -9.80325,4.01042 -3.71336,-0.14853 -6.98111,-1.48534 -9.80326,-4.01042 -2.82215,-2.52508 -4.15896,-5.79284 -4.01043,-9.80327 v -53.63697 h -8.02084 v 53.63697 c 0,3.71337 -1.41108,6.98112 -4.23323,9.80327 -2.82215,2.82215 -6.08991,4.15896 -9.80326,4.01042 -3.71335,-0.14853 -6.98111,-1.48534 -9.80326,-4.01042 -2.82215,-2.52508 -4.15896,-5.79284 -4.01043,-9.80327 v -109.3373 h -8.02084 v 43.66906 c 0,3.26775 -1.114,6.08991 -3.34202,8.46645 -2.22801,2.37655 -5.05016,3.56482 -8.46645,3.56482 -3.41629,0 -6.23844,-1.18827 -8.46645,-3.56482 -2.22801,-2.37654 -3.41629,-5.1987 -3.56482,-8.46645 V 274.8635 c 0,-6.68404 2.30228,-12.32834 6.90684,-16.93289 4.60456,-4.60457 10.24886,-6.90685 16.9329,-6.90685 h 79.54008 c 6.68404,0 12.32834,2.30228 16.93289,6.90685 4.60457,4.60455 6.90685,10.24885 6.90685,16.93289 z m -35.64822,-55.70033 c 0,7.72377 -2.74788,14.25928 -8.24365,19.60651 -5.49576,5.34723 -12.03127,8.09511 -19.60651,8.24366 -7.57524,0.14852 -14.18502,-2.59936 -19.82932,-8.24366 -5.6443,-5.6443 -8.31791,-12.17981 -8.02085,-19.60651 0.29707,-7.42671 2.97069,-14.03649 8.02085,-19.82932 5.05017,-5.79283 11.65994,-8.46645 19.82932,-8.02085 8.16938,0.4456 14.70489,3.11922 19.60651,8.02085 4.90163,4.90163 7.64952,11.5114 8.24365,19.82932 z"
       id="path49"
       style="stroke-width:0.222801"
       sodipodi:nodetypes="ssssscccsssscccsssscccsssscsssssscsssssssc" />
    <g
       id="g2346"
       transform="matrix(0.76411419,0,0,0.76411419,81.948257,90.541529)">
      <path
         style="color:#000000;stroke-width:17.7764;stroke-linecap:round;stroke-linejoin:round;-inkscape-stroke:none"
         d="m 288.00258,435.4886 a 6.3624457,6.3624457 0 0 0 -4.74314,-2.1241 l -44.19018,-4.9e-4 a 6.3624457,6.3624457 0 0 0 -6.36199,6.36199 l 5e-4,44.19017 a 6.3624457,6.3624457 0 0 0 10.85961,4.49812 l 44.19019,-44.19018 a 6.3624457,6.3624457 0 0 0 1.37874,-6.93107 6.3624457,6.3624457 0 0 0 -1.13373,-1.80444 z"
         id="path2759" />
      <path
         style="color:#000000;stroke-width:17.7764;stroke-linecap:round;stroke-linejoin:round;-inkscape-stroke:none"
         d="m 353.80906,435.4886 a 6.3624457,6.3624457 0 0 1 4.74313,-2.1241 l 44.1902,-4.9e-4 a 6.3624457,6.3624457 0 0 1 6.36199,6.36199 l -4.9e-4,44.19017 a 6.3624457,6.3624457 0 0 1 -10.85962,4.49812 l -44.1902,-44.19018 a 6.3624457,6.3624457 0 0 1 -1.37874,-6.93107 6.3624457,6.3624457 0 0 1 1.13373,-1.80444 z"
         id="path2759-8" />
      <path
         id="path1490"
         style="stroke-width:45.2673;stroke-linecap:round;stroke-linejoin:round"
         d="m 232.70727,450.98545 v 6.05028 a 115.2022,110.27171 0 0 0 88.19855,40.33811 115.2022,110.27171 0 0 0 88.19856,-40.33811 v -6.05028 h -40.83307 a 82.346433,78.822125 0 0 1 -44.42859,14.8792 82.346433,78.822125 0 0 1 -2.9369,0.0289 82.346433,78.822125 0 0 1 -2.9369,-0.0289 82.346433,78.822125 0 0 1 -44.42858,-14.8792 z" />
    </g>
  </g>
</svg>
