<?xml version="1.0" encoding="UTF-8" standalone="no"?>
<!-- Created with Inkscape (http://www.inkscape.org/) -->

<svg
   width="800"
   height="800"
   viewBox="0 0 211.66665 211.66666"
   version="1.1"
   id="svg1"
   inkscape:version="1.2.2 (732a01da63, 2022-12-09)"
   sodipodi:docname="clone.svg"
   xmlns:inkscape="http://www.inkscape.org/namespaces/inkscape"
   xmlns:sodipodi="http://sodipodi.sourceforge.net/DTD/sodipodi-0.dtd"
   xmlns="http://www.w3.org/2000/svg"
   xmlns:svg="http://www.w3.org/2000/svg">
  <sodipodi:namedview
     id="namedview1"
     pagecolor="#4f4f4f"
     bordercolor="#ffffff"
     borderopacity="1"
     inkscape:showpageshadow="0"
     inkscape:pageopacity="0"
     inkscape:pagecheckerboard="1"
     inkscape:deskcolor="#4f4f4f"
     inkscape:document-units="px"
     inkscape:zoom="0.35046297"
     inkscape:cx="155.50858"
     inkscape:cy="271.07001"
     inkscape:window-width="1920"
     inkscape:window-height="1137"
     inkscape:window-x="-8"
     inkscape:window-y="-8"
     inkscape:window-maximized="1"
     inkscape:current-layer="g1"
     showguides="true"
     showgrid="false" />
  <defs
     id="defs1" />
  <g
     inkscape:label="Layer 1"
     inkscape:groupmode="layer"
     id="layer1"
     transform="translate(-123.03125,-110.59582)">
    <g
       id="g1"
       transform="matrix(0.96715517,0,0,0.96715517,9.90897,-39.207178)">
      <rect
         style="stroke-width:29.9612;paint-order:stroke fill markers"
         id="rect355"
         width="164.14117"
         height="164.14117"
         x="116.96394"
         y="209.60408"
         ry="26.149836" />
      <path
         id="rect355-5"
         style="stroke-width:29.9612;paint-order:stroke fill markers"
         d="m 255.25609,319.03154 v -83.27761 c 0,-0.15344 0.0192,-0.24919 0.039,-0.30616 0.0198,-0.057 0.0399,-0.075 0.0406,-0.0743 7.6e-4,7.6e-4 -0.0178,0.0203 -0.0748,0.0401 -0.057,0.0198 -0.15219,0.0395 -0.30563,0.0395 h -83.27761 v 57.42858 c 0,14.48699 11.66286,26.14985 26.14985,26.14985 z" />
      <path
         id="path1048"
         style="stroke-width:29.9612;paint-order:stroke fill markers"
         d="m 197.82751,154.89035 c -14.48699,0 -26.14985,11.66286 -26.14985,26.14985 v 2.71592 h 83.27761 c 0.44313,0 0.88488,0.006 1.32563,0.0171 0.44075,0.0115 0.88046,0.0285 1.31869,0.0513 0.43823,0.0228 0.87511,0.051 1.31067,0.085 0.43556,0.034 0.8699,0.0736 1.30266,0.11862 0.43275,0.045 0.86377,0.0958 1.29357,0.15174 0.4298,0.0559 0.85833,0.11715 1.28503,0.1838 0.4267,0.0667 0.85141,0.13861 1.27487,0.21587 0.42346,0.0772 0.84572,0.15967 1.26579,0.24738 0.42007,0.0877 0.83803,0.18088 1.25457,0.27892 0.41653,0.098 0.83155,0.20116 1.24441,0.30936 0.41286,0.10821 0.82362,0.22106 1.23266,0.33929 0.40905,0.11823 0.81637,0.24164 1.22145,0.36975 0.81015,0.25622 1.61205,0.53223 2.40548,0.82712 0.79342,0.29488 1.5781,0.60853 2.35365,0.94092 0.77555,0.3324 1.5421,0.68332 2.29862,1.05207 0.75651,0.36875 1.50298,0.75551 2.2393,1.15946 0.73633,0.40395 1.46235,0.82512 2.17733,1.26311 0.71498,0.438 1.41913,0.89269 2.11161,1.36357 0.69248,0.47089 1.37332,0.95819 2.04215,1.46082 0.66882,0.50262 1.32546,1.02058 1.96948,1.55378 0.64402,0.53321 1.27555,1.08145 1.89361,1.64408 0.61805,0.56264 1.22252,1.13974 1.81346,1.73065 0.59093,0.5909 1.16798,1.19544 1.73064,1.81346 0.56266,0.61802 1.11138,1.24962 1.64462,1.89361 0.53323,0.64398 1.05113,1.30068 1.55378,1.96948 0.50265,0.66879 0.9899,1.34969 1.46082,2.04214 0.47091,0.69245 0.92554,1.39613 1.36356,2.11108 0.43803,0.71495 0.85914,1.44103 1.26312,2.17733 0.40398,0.73629 0.79069,1.48282 1.15946,2.2393 0.36878,0.75649 0.71965,1.5231 1.05207,2.29862 0.33242,0.77553 0.64655,1.56025 0.94146,2.35365 0.29491,0.79341 0.57087,1.59535 0.82711,2.40548 0.12813,0.40507 0.25151,0.81241 0.36975,1.22145 0.11824,0.40903 0.23108,0.8198 0.33929,1.23266 0.10821,0.41285 0.21133,0.82788 0.30937,1.24441 0.098,0.41654 0.19118,0.83451 0.27891,1.25457 0.0877,0.42007 0.17012,0.84181 0.24739,1.26526 0.0773,0.42345 0.1492,0.84871 0.21586,1.2754 0.0667,0.4267 0.12843,0.85523 0.18434,1.28503 0.0559,0.42979 0.10619,0.86082 0.15121,1.29357 0.045,0.43275 0.0846,0.8671 0.11862,1.30266 0.034,0.43556 0.0622,0.87244 0.0849,1.31067 0.0228,0.43823 0.0398,0.87794 0.0513,1.31869 0.0115,0.44075 0.0176,0.8825 0.0176,1.32563 v 83.27761 h 2.71378 c 14.48699,0 26.14985,-11.66286 26.14985,-26.14985 V 181.0402 c 0,-14.48699 -11.66286,-26.14985 -26.14985,-26.14985 z" />
    </g>
  </g>
</svg>
