<?xml version="1.0" encoding="UTF-8" standalone="no"?>
<!-- Created with Inkscape (http://www.inkscape.org/) -->

<svg
   width="800"
   height="800"
   viewBox="0 0 211.66665 211.66666"
   version="1.1"
   id="svg1"
   inkscape:version="1.2.2 (732a01da63, 2022-12-09)"
   sodipodi:docname="clone.svg"
   xmlns:inkscape="http://www.inkscape.org/namespaces/inkscape"
   xmlns:sodipodi="http://sodipodi.sourceforge.net/DTD/sodipodi-0.dtd"
   xmlns="http://www.w3.org/2000/svg"
   xmlns:svg="http://www.w3.org/2000/svg">
  <sodipodi:namedview
     id="namedview1"
     pagecolor="#4f4f4f"
     bordercolor="#ffffff"
     borderopacity="1"
     inkscape:showpageshadow="0"
     inkscape:pageopacity="0"
     inkscape:pagecheckerboard="1"
     inkscape:deskcolor="#4f4f4f"
     inkscape:document-units="px"
     inkscape:zoom="0.70092594"
     inkscape:cx="555.69352"
     inkscape:cy="333.84412"
     inkscape:window-width="1920"
     inkscape:window-height="1137"
     inkscape:window-x="1592"
     inkscape:window-y="-8"
     inkscape:window-maximized="1"
     inkscape:current-layer="g1"
     showguides="true"
     showgrid="false" />
  <defs
     id="defs1" />
  <g
     inkscape:label="Layer 1"
     inkscape:groupmode="layer"
     id="layer1"
     transform="translate(-123.03125,-110.59582)">
    <g
       id="g1"
       transform="matrix(0.96715517,0,0,0.96715517,9.90897,-39.207178)">
      <path
         id="rect355"
         style="stroke-width:27.4645;paint-order:stroke fill markers"
         d="m 188.65816,158.30995 c -15.09061,0 -27.23932,12.14871 -27.23932,27.23931 v 2.82919 h 86.74744 c 0.46159,0 0.92209,0.006 1.3812,0.0176 0.45912,0.012 0.91723,0.0297 1.37372,0.0534 0.45649,0.0238 0.91146,0.0533 1.36517,0.0887 0.45371,0.0354 0.90584,0.0766 1.35663,0.12343 0.45078,0.0469 0.89983,0.0999 1.34754,0.15815 0.4477,0.0582 0.89451,0.12187 1.33899,0.19129 0.44447,0.0695 0.88667,0.14446 1.32776,0.22494 0.44111,0.0804 0.88112,0.16617 1.31869,0.25754 0.43758,0.0914 0.8725,0.18854 1.3064,0.29067 0.43388,0.10208 0.86618,0.20948 1.29624,0.32219 0.43006,0.11272 0.85841,0.23057 1.28449,0.35372 0.42609,0.12316 0.85026,0.25179 1.2722,0.38524 0.84391,0.2669 1.67891,0.55414 2.5054,0.86131 0.82648,0.30717 1.64411,0.63369 2.45197,0.97993 0.80787,0.34625 1.60622,0.7123 2.39426,1.09641 0.78803,0.38412 1.56581,0.78677 2.33281,1.20755 0.76701,0.42079 1.52339,0.85924 2.26816,1.31548 0.74477,0.45625 1.47791,0.93024 2.19924,1.42074 0.72134,0.49051 1.43095,0.99815 2.12764,1.52173 0.69669,0.52356 1.38037,1.06302 2.05123,1.61844 0.67085,0.55542 1.32886,1.1264 1.97268,1.71247 0.6438,0.58608 1.27324,1.18725 1.8888,1.80278 0.61555,0.61552 1.21668,1.24503 1.80278,1.88879 0.5861,0.64377 1.15755,1.30187 1.71301,1.97269 0.55544,0.67081 1.09537,1.3551 1.61897,2.05177 0.52359,0.69666 1.03117,1.4058 1.52172,2.1271 0.49053,0.7213 0.96394,1.45449 1.42021,2.19923 0.45628,0.74474 0.89467,1.50065 1.31548,2.26763 0.42082,0.76697 0.82395,1.54482 1.20808,2.33282 0.38415,0.788 0.74961,1.58642 1.09588,2.39426 0.34627,0.80783 0.67327,1.6255 0.98047,2.45196 0.30719,0.82646 0.59493,1.66152 0.86184,2.5054 0.13347,0.42195 0.26207,0.84664 0.38524,1.27273 0.12317,0.42607 0.24046,0.85389 0.35318,1.28396 0.11271,0.43005 0.22007,0.86236 0.3222,1.29624 0.10208,0.43389 0.19927,0.86938 0.29066,1.30694 0.0913,0.43757 0.17705,0.87652 0.25754,1.31761 0.0805,0.44109 0.15551,0.88437 0.22495,1.32884 0.0695,0.44448 0.13358,0.89075 0.19182,1.33846 0.0582,0.4477 0.11073,0.89676 0.15762,1.34754 0.0469,0.45078 0.088,0.90291 0.12343,1.35662 0.0354,0.45371 0.0651,0.90922 0.0887,1.36571 0.0238,0.45649 0.0415,0.91407 0.0534,1.37318 0.012,0.45912 0.0182,0.9196 0.0182,1.3812 v 86.74744 h 2.82705 c 15.09061,0 27.23932,-12.14872 27.23932,-27.23931 V 185.54926 c 0,-15.0906 -12.14871,-27.23931 -27.23932,-27.23931 z m -43.19767,61.55294 c -13.89271,0 -25.07694,11.18423 -25.07694,25.07694 v 100.30886 c 0,13.89271 11.18423,25.07695 25.07694,25.07695 h 100.30886 c 13.89271,0 25.07695,-11.18424 25.07695,-25.07695 V 244.93983 c 0,-13.89271 -11.18424,-25.07694 -25.07695,-25.07694 z" />
    </g>
  </g>
</svg>
