<?xml version="1.0" encoding="UTF-8" standalone="no"?>
<!-- Created with Inkscape (http://www.inkscape.org/) -->

<svg
   width="500"
   height="500"
   viewBox="0 0 132.29166 132.29167"
   version="1.1"
   id="svg5"
   sodipodi:docname="tool-config.svg"
   inkscape:version="1.2.2 (732a01da63, 2022-12-09)"
   xmlns:inkscape="http://www.inkscape.org/namespaces/inkscape"
   xmlns:sodipodi="http://sodipodi.sourceforge.net/DTD/sodipodi-0.dtd"
   xmlns="http://www.w3.org/2000/svg"
   xmlns:svg="http://www.w3.org/2000/svg">
  <sodipodi:namedview
     id="namedview7"
     pagecolor="#505050"
     bordercolor="#ffffff"
     borderopacity="1"
     inkscape:showpageshadow="0"
     inkscape:pageopacity="0"
     inkscape:pagecheckerboard="1"
     inkscape:deskcolor="#505050"
     inkscape:document-units="px"
     showgrid="false"
     inkscape:zoom="1.1893044"
     inkscape:cx="203.05987"
     inkscape:cy="276.63229"
     inkscape:window-width="1920"
     inkscape:window-height="1137"
     inkscape:window-x="1592"
     inkscape:window-y="-8"
     inkscape:window-maximized="1"
     inkscape:current-layer="layer1"
     showguides="false" />
  <defs
     id="defs2" />
  <g
     inkscape:label="Layer 1"
     inkscape:groupmode="layer"
     id="layer1">
    <path
       id="rect7640"
       style="stroke-width:0.0909789"
       d="M 20.864359 27.678414 C 17.932779 27.678414 15.572693 30.0385 15.572693 32.97008 C 15.572693 35.90166 17.932779 38.261747 20.864359 38.261747 L 40.708109 38.261747 A 5.2916632 5.2916632 0 0 1 35.416442 32.97008 A 5.2916632 5.2916632 0 0 1 40.708109 27.678414 L 20.864359 27.678414 z M 40.708109 27.678414 A 5.2916632 5.2916632 0 0 1 45.999776 32.97008 A 5.2916632 5.2916632 0 0 1 40.708109 38.261747 L 111.42731 38.261747 C 114.35889 38.261747 116.71897 35.90166 116.71897 32.97008 C 116.71897 30.0385 114.35889 27.678414 111.42731 27.678414 L 40.708109 27.678414 z " />
    <path
       id="rect2"
       style="stroke-width:0.0909788"
       d="M 20.864359 60.854166 C 17.932779 60.854166 15.572693 63.214252 15.572693 66.145832 C 15.572693 69.077413 17.932779 71.437499 20.864359 71.437499 L 91.583556 71.437499 A 5.2916632 5.2916632 0 0 1 86.291889 66.145832 A 5.2916632 5.2916632 0 0 1 91.583556 60.854166 L 20.864359 60.854166 z M 91.583556 60.854166 A 5.2916632 5.2916632 0 0 1 96.875223 66.145832 A 5.2916632 5.2916632 0 0 1 91.583556 71.437499 L 111.42731 71.437499 C 114.35889 71.437499 116.71897 69.077413 116.71897 66.145832 C 116.71897 63.214252 114.35889 60.854166 111.42731 60.854166 L 91.583556 60.854166 z " />
    <path
       id="rect3"
       style="stroke-width:0.0909788"
       d="M 20.864359 94.029918 C 17.932782 94.029918 15.572693 96.390008 15.572693 99.321585 C 15.572693 102.25317 17.932782 104.61325 20.864359 104.61325 L 66.145832 104.61325 A 5.2916632 5.2916632 0 0 1 60.854166 99.321585 A 5.2916632 5.2916632 0 0 1 66.145832 94.029918 L 20.864359 94.029918 z M 66.145832 94.029918 A 5.2916632 5.2916632 0 0 1 71.437499 99.321585 A 5.2916632 5.2916632 0 0 1 66.145832 104.61325 L 111.42731 104.61325 C 114.35888 104.61325 116.71897 102.25317 116.71897 99.321585 C 116.71897 96.390008 114.35888 94.029918 111.42731 94.029918 L 66.145832 94.029918 z " />
    <path
       id="path611-4-0"
       style="stroke-width:0;stroke-linecap:round;stroke-linejoin:round"
       d="M 66.145832 87.415335 A 11.90625 11.90625 0 0 0 54.239583 99.321585 A 11.90625 11.90625 0 0 0 66.145832 111.22783 A 11.90625 11.90625 0 0 0 78.052082 99.321585 A 11.90625 11.90625 0 0 0 66.145832 87.415335 z M 66.145832 94.029918 A 5.2916632 5.2916632 0 0 1 71.437499 99.321585 A 5.2916632 5.2916632 0 0 1 66.145832 104.61325 A 5.2916632 5.2916632 0 0 1 60.854166 99.321585 A 5.2916632 5.2916632 0 0 1 66.145832 94.029918 z " />
    <path
       id="path611-4-0-0"
       style="stroke-width:0;stroke-linecap:round;stroke-linejoin:round"
       d="m 91.583405,54.239586 a 11.90625,11.90625 0 0 0 -11.90625,11.90625 11.90625,11.90625 0 0 0 11.90625,11.90624 11.90625,11.90625 0 0 0 11.906245,-11.90624 11.90625,11.90625 0 0 0 -11.906245,-11.90625 z m 0,6.61458 a 5.2916632,5.2916632 0 0 1 5.29167,5.29167 5.2916632,5.2916632 0 0 1 -5.29167,5.29166 5.2916632,5.2916632 0 0 1 -5.29167,-5.29166 5.2916632,5.2916632 0 0 1 5.29167,-5.29167 z" />
    <path
       id="path611-4-0-0-6"
       style="stroke-width:0;stroke-linecap:round;stroke-linejoin:round"
       d="M 40.708271,21.06369 A 11.90625,11.90625 0 0 0 28.802021,32.96994 11.90625,11.90625 0 0 0 40.708271,44.87618 11.90625,11.90625 0 0 0 52.614513,32.96994 11.90625,11.90625 0 0 0 40.708271,21.06369 Z m 0,6.61458 a 5.2916632,5.2916632 0 0 1 5.291672,5.29167 5.2916632,5.2916632 0 0 1 -5.291672,5.29166 5.2916632,5.2916632 0 0 1 -5.29167,-5.29166 5.2916632,5.2916632 0 0 1 5.29167,-5.29167 z" />
  </g>
</svg>
