<?xml version="1.0" encoding="UTF-8" standalone="no"?>
<!-- Created with Inkscape (http://www.inkscape.org/) -->

<svg
   width="928"
   height="786"
   viewBox="0 0 245.53332 207.9625"
   version="1.1"
   id="svg1"
   inkscape:version="1.4 (e7c3feb100, 2024-10-09)"
   sodipodi:docname="box-checked.svg"
   xmlns:inkscape="http://www.inkscape.org/namespaces/inkscape"
   xmlns:sodipodi="http://sodipodi.sourceforge.net/DTD/sodipodi-0.dtd"
   xmlns="http://www.w3.org/2000/svg"
   xmlns:svg="http://www.w3.org/2000/svg">
  <sodipodi:namedview
     id="namedview1"
     pagecolor="#4f4f4f"
     bordercolor="#ffffff"
     borderopacity="1"
     inkscape:showpageshadow="0"
     inkscape:pageopacity="0"
     inkscape:pagecheckerboard="1"
     inkscape:deskcolor="#4f4f4f"
     inkscape:document-units="px"
     inkscape:zoom="0.18541667"
     inkscape:cx="-215.73034"
     inkscape:cy="590.5618"
     inkscape:window-width="1920"
     inkscape:window-height="1052"
     inkscape:window-x="0"
     inkscape:window-y="0"
     inkscape:window-maximized="1"
     inkscape:current-layer="layer1" />
  <defs
     id="defs1" />
  <g
     inkscape:label="Layer 1"
     inkscape:groupmode="layer"
     id="layer1"
     transform="translate(-175.41875,-25.929166)">
    <path
       d="m 383.38125,144.4625 v 46.83125 q 0,17.72708 -12.43542,30.1625 -12.43542,12.43541 -30.1625,12.43541 H 218.01667 q -17.72709,0 -30.1625,-12.43541 -12.43542,-12.43542 -12.43542,-30.1625 V 68.527082 q 0,-17.4625 12.43542,-29.897916 12.43541,-12.435417 30.1625,-12.7 h 122.76666 q 9.26042,0 17.19792,3.704167 2.38125,1.058333 2.64583,3.439583 0.52917,2.645833 -1.32292,4.233333 l -7.14375,7.408333 q -1.5875,1.322917 -3.43958,1.322917 -0.52917,0 -1.32292,-0.264583 -3.43958,-0.79375 -6.61458,-0.79375 H 218.01667 q -9.78959,0 -16.66875,6.879166 -6.87917,6.879167 -7.14375,16.66875 V 191.29375 q 0,9.78958 7.14375,16.66875 7.14375,6.87916 16.66875,7.14375 h 122.76666 q 9.78958,0 16.66875,-7.14375 6.87917,-7.14375 6.87917,-16.66875 V 153.9875 q 0,-2.11667 1.32291,-3.43959 l 9.525,-9.26041 q 1.5875,-1.5875 3.43959,-1.5875 0.79375,0 1.85208,0.52916 2.91042,1.05834 2.91042,4.23334 z M 417.5125,72.231249 297.12708,192.35208 q -3.43958,3.70417 -8.20208,3.70417 -4.7625,0 -8.46667,-3.70417 l -63.5,-63.5 q -3.70416,-3.43958 -3.70416,-8.20208 0,-4.7625 3.70416,-8.46667 l 16.13959,-16.404165 q 3.70416,-3.439583 8.46666,-3.439583 4.7625,0 8.46667,3.439583 L 288.925,134.67291 384.43958,39.158332 q 3.43958,-3.439583 8.20208,-3.439583 4.7625,0 8.46667,3.439583 l 16.40417,16.139584 q 3.43958,3.704166 3.43958,8.466666 0,4.7625 -3.43958,8.466667 z"
       id="path46"
       style="stroke-width:0.264583" />
  </g>
</svg>
