<?xml version="1.0" encoding="UTF-8" standalone="no"?>
<!-- Created with Inkscape (http://www.inkscape.org/) -->

<svg
   width="928"
   height="786"
   viewBox="0 0 245.53332 207.9625"
   version="1.1"
   id="svg1"
   inkscape:version="1.2.2 (732a01da63, 2022-12-09)"
   sodipodi:docname="box-outer-checked.svg"
   xmlns:inkscape="http://www.inkscape.org/namespaces/inkscape"
   xmlns:sodipodi="http://sodipodi.sourceforge.net/DTD/sodipodi-0.dtd"
   xmlns="http://www.w3.org/2000/svg"
   xmlns:svg="http://www.w3.org/2000/svg">
  <sodipodi:namedview
     id="namedview1"
     pagecolor="#4f4f4f"
     bordercolor="#ffffff"
     borderopacity="1"
     inkscape:showpageshadow="0"
     inkscape:pageopacity="0"
     inkscape:pagecheckerboard="1"
     inkscape:deskcolor="#4f4f4f"
     inkscape:document-units="px"
     inkscape:zoom="0.52443754"
     inkscape:cx="-100.10725"
     inkscape:cy="272.67308"
     inkscape:window-width="1920"
     inkscape:window-height="1137"
     inkscape:window-x="1592"
     inkscape:window-y="-8"
     inkscape:window-maximized="1"
     inkscape:current-layer="layer1"
     showgrid="false" />
  <defs
     id="defs1" />
  <g
     inkscape:label="Layer 1"
     inkscape:groupmode="layer"
     id="layer1"
     transform="translate(-175.41875,-25.929166)">
    <path
       d="M 340.78333,44.97916 H 218.01667 q -9.78959,0 -16.66875,6.879166 -6.87917,6.879167 -7.14375,16.66875 V 191.29374 q 0,9.78958 7.14375,16.66875 7.14375,6.87917 16.66875,7.14375 h 122.76666 q 9.78958,0 16.66875,-7.14375 6.87917,-7.14375 6.87917,-16.66875 V 68.527076 q 0,-9.789583 -6.87917,-16.66875 -6.87917,-6.879166 -16.66875,-6.879166 z m 42.59792,23.547916 V 191.29374 q 0,17.72708 -12.43542,30.1625 -12.43542,12.43542 -30.1625,12.43542 H 218.01667 q -17.72709,0 -30.1625,-12.43542 -12.43542,-12.43542 -12.43542,-30.1625 V 68.527076 q 0,-17.4625 12.43542,-29.897916 12.43541,-12.435417 30.1625,-12.7 h 122.76666 q 17.4625,0 30.1625,12.7 12.7,12.7 12.43542,29.897916 z"
       id="path47"
       style="stroke-width:0.264583" />
    <path
       id="path354"
       style="fill-opacity:1;stroke-width:22.0543"
       d="M 279.45012 61.796743 C 278.01502 61.811431 276.57989 61.871279 275.14444 61.916632 C 271.24104 62.214927 267.35161 62.745015 263.54722 63.682416 C 260.13792 64.481466 256.79597 65.576197 253.55455 66.899274 C 249.66538 68.49221 245.93294 70.456555 242.39916 72.728375 C 239.12694 74.855366 236.03843 77.254526 233.16561 79.895896 C 230.11725 82.730365 227.31378 85.8299 224.82659 89.169749 C 222.33874 92.505604 220.14657 96.065698 218.31846 99.805275 C 216.73384 102.97105 215.435 106.28132 214.37554 109.6579 C 213.1256 113.67078 212.25698 117.79908 211.75452 121.97085 C 211.30473 125.84743 211.19156 129.75676 211.39071 133.65385 C 211.63404 137.84901 212.25045 142.02151 213.24796 146.10477 C 214.24757 150.18495 215.62309 154.17492 217.36037 158.0012 C 218.80328 161.19111 220.49504 164.27257 222.41536 167.20013 C 224.71115 170.72035 227.3446 174.01679 230.24538 177.05534 C 232.94897 179.87059 235.89804 182.43957 239.02727 184.77115 C 242.39487 187.21874 245.96116 189.39347 249.71137 191.20486 C 253.49223 193.03425 257.44177 194.5193 261.49721 195.617 C 264.87436 196.5417 268.32812 197.20364 271.80873 197.58897 C 280.90606 198.63415 290.20752 197.80007 298.97503 195.16173 C 314.19808 190.63934 327.69298 180.58454 336.36034 167.27609 C 345.17701 153.92648 349.02272 137.40159 347.0062 121.53108 C 345.09852 105.76428 337.43672 90.778741 325.76978 80.00235 C 314.16603 69.160596 298.66146 62.617343 282.79876 61.872191 C 282.16083 61.831428 281.52304 61.809119 280.88518 61.799327 C 280.40678 61.791983 279.92849 61.791847 279.45012 61.796743 z M 279.43565 88.384267 C 279.72729 88.381282 280.01888 88.38134 280.31054 88.385817 C 280.69942 88.391777 281.08846 88.405409 281.47739 88.430259 C 291.14822 88.884548 300.60094 92.873561 307.67527 99.483331 C 314.78812 106.05326 319.45925 115.18931 320.62229 124.80168 C 321.85168 134.47728 319.50689 144.55171 314.13173 152.69042 C 308.8476 160.80402 300.62018 166.93434 291.33932 169.69145 C 285.99414 171.29993 280.32329 171.80815 274.77702 171.17094 C 272.65504 170.93603 270.54949 170.53271 268.49059 169.96895 C 266.01816 169.29972 263.61053 168.39397 261.30549 167.27867 C 259.01915 166.17435 256.84477 164.84864 254.79168 163.35643 C 252.88393 161.93497 251.08628 160.36868 249.438 158.65233 C 247.66952 156.79985 246.06378 154.79055 244.66413 152.64443 C 243.49339 150.85961 242.46184 148.98073 241.58215 147.03598 C 240.523 144.70325 239.68475 142.27071 239.07533 139.7832 C 238.46718 137.29381 238.09145 134.75005 237.9431 132.19244 C 237.82168 129.81655 237.89058 127.43328 238.16479 125.06988 C 238.47112 122.52653 239.0006 120.00985 239.76262 117.56336 C 240.40853 115.50481 241.20054 113.48654 242.16661 111.5565 C 243.28114 109.27664 244.61759 107.10587 246.13433 105.07214 C 247.65068 103.03597 249.35981 101.14629 251.21826 99.418218 C 252.96969 97.807892 254.85243 96.345714 256.84737 95.048976 C 259.00178 93.663931 261.27744 92.466335 263.6485 91.495188 C 265.62466 90.688563 267.66214 90.020697 269.74064 89.533551 C 272.06004 88.962055 274.43127 88.638987 276.81101 88.457131 C 277.68614 88.429478 278.56073 88.393222 279.43565 88.384267 z " />
  </g>
</svg>
