<?xml version="1.0" encoding="UTF-8" standalone="no"?>
<!-- Created with Inkscape (http://www.inkscape.org/) -->

<svg
   width="550"
   height="650"
   viewBox="0 0 145.52083 171.97916"
   version="1.1"
   id="svg5"
   inkscape:version="1.2.2 (732a01da63, 2022-12-09)"
   sodipodi:docname="copy.svg"
   xmlns:inkscape="http://www.inkscape.org/namespaces/inkscape"
   xmlns:sodipodi="http://sodipodi.sourceforge.net/DTD/sodipodi-0.dtd"
   xmlns="http://www.w3.org/2000/svg"
   xmlns:svg="http://www.w3.org/2000/svg">
  <sodipodi:namedview
     id="namedview7"
     pagecolor="#505050"
     bordercolor="#ffffff"
     borderopacity="1"
     inkscape:showpageshadow="0"
     inkscape:pageopacity="0"
     inkscape:pagecheckerboard="1"
     inkscape:deskcolor="#505050"
     inkscape:document-units="mm"
     showgrid="false"
     inkscape:zoom="1.1893044"
     inkscape:cx="257.71367"
     inkscape:cy="353.1476"
     inkscape:window-width="1920"
     inkscape:window-height="1137"
     inkscape:window-x="-8"
     inkscape:window-y="-8"
     inkscape:window-maximized="1"
     inkscape:current-layer="layer1" />
  <defs
     id="defs2" />
  <g
     inkscape:label="Layer 1"
     inkscape:groupmode="layer"
     id="layer1"
     transform="translate(-119.0625)">
    <path
       id="rect234"
       style="fill-opacity:1;stroke:none;stroke-width:0;stroke-dasharray:none;paint-order:stroke fill markers"
       d="m 138.90625,39.6875 c -10.99342,0 -19.84375,8.850337 -19.84375,19.84375 v 92.60417 c 0,10.99341 8.85033,19.84375 19.84375,19.84375 h 66.14583 c 10.99343,0 19.84375,-8.85034 19.84375,-19.84375 V 92.60365 H 191.8224 c -10.76458,0 -19.84375,-9.079173 -19.84375,-19.84375 V 39.6875 Z m 46.30208,0 v 33.072917 c 0,3.664471 2.95011,6.614583 6.61459,6.614583 h 33.07291 z" />
    <path
       id="path4064"
       style="fill-opacity:1;stroke-width:0;paint-order:stroke fill markers;stroke:none;stroke-dasharray:none"
       d="M 178.59375,0 C 167.60034,0 158.75,8.850348 158.75,19.84375 v 6.614067 h 26.45885 a 13.23049,13.23049 0 0 1 9.35343,3.874698 l 39.6875,39.687498 a 13.23049,13.23049 0 0 1 3.87522,9.3555 v 52.916157 h 6.61458 c 10.99342,0 19.84375,-8.85035 19.84375,-19.84375 V 52.91615 H 231.5099 c -10.76458,0 -19.84375,-9.079173 -19.84375,-19.84375 V 0 Z m 46.30208,0 v 33.072917 c 0,3.664471 2.95011,6.614583 6.61459,6.614583 h 33.07291 z" />
  </g>
</svg>
