<?xml version="1.0" encoding="UTF-8" standalone="no"?>
<!-- Created with Inkscape (http://www.inkscape.org/) -->

<svg
   width="1000"
   height="1000"
   viewBox="0 0 264.58331 264.58333"
   version="1.1"
   id="svg1"
   inkscape:version="1.4.2 (ebf0e940d0, 2025-05-08)"
   sodipodi:docname="grid-cull.svg"
   xmlns:inkscape="http://www.inkscape.org/namespaces/inkscape"
   xmlns:sodipodi="http://sodipodi.sourceforge.net/DTD/sodipodi-0.dtd"
   xmlns="http://www.w3.org/2000/svg"
   xmlns:svg="http://www.w3.org/2000/svg">
  <sodipodi:namedview
     id="namedview1"
     pagecolor="#4f4f4f"
     bordercolor="#ffffff"
     borderopacity="1"
     inkscape:showpageshadow="0"
     inkscape:pageopacity="0"
     inkscape:pagecheckerboard="1"
     inkscape:deskcolor="#4f4f4f"
     inkscape:document-units="px"
     inkscape:zoom="0.49562948"
     inkscape:cx="491.29443"
     inkscape:cy="594.19387"
     inkscape:window-width="1920"
     inkscape:window-height="1008"
     inkscape:window-x="0"
     inkscape:window-y="0"
     inkscape:window-maximized="1"
     inkscape:current-layer="layer1"
     showgrid="false"
     showguides="true">
    <sodipodi:guide
       position="116.41666,220.48611"
       orientation="0,-1"
       id="guide1"
       inkscape:locked="false" />
    <sodipodi:guide
       position="44.097218,191.38194"
       orientation="1,0"
       id="guide2"
       inkscape:locked="false" />
    <sodipodi:guide
       position="220.48609,171.40257"
       orientation="1,0"
       id="guide3"
       inkscape:locked="false" />
    <sodipodi:guide
       position="116.41666,44.097222"
       orientation="0,-1"
       id="guide4"
       inkscape:locked="false" />
  </sodipodi:namedview>
  <defs
     id="defs1" />
  <g
     inkscape:label="Layer 1"
     inkscape:groupmode="layer"
     id="layer1"
     transform="translate(-124.61875,-95.51458)">
    <path
       id="path11"
       style="fill-opacity:1;stroke-width:0;stroke-linecap:round;stroke-linejoin:round"
       d="M 186.35503 139.61163 C 176.58311 139.61163 168.7158 147.47894 168.7158 157.25086 L 168.7158 180.18124 C 168.7158 185.06721 172.64944 189.00086 177.53541 189.00086 L 209.28541 189.00086 C 214.17138 189.00086 218.10503 185.06721 218.10503 180.18124 L 218.10503 148.43124 C 218.10503 143.54527 214.17138 139.61163 209.28541 139.61163 L 186.35503 139.61163 z M 241.03541 139.61163 C 236.14946 139.61163 232.21579 143.54527 232.21579 148.43124 L 232.21579 211.93124 L 232.21579 243.68124 C 232.21579 244.02319 232.24184 244.35836 232.27936 244.68996 C 232.29001 244.78417 232.30402 244.87679 232.3176 244.97005 C 232.35454 245.22386 232.40178 245.47368 232.45971 245.71987 C 232.47859 245.80011 232.49396 245.88133 232.515 245.96069 C 232.59703 246.27008 232.69432 246.57274 232.80801 246.86761 C 232.83339 246.93344 232.86379 246.99634 232.89069 247.06139 C 232.98863 247.29826 233.09624 247.52959 233.21367 247.75541 C 233.23675 247.79979 233.25342 247.8479 233.27723 247.89183 C 233.30139 247.93641 233.33088 247.97744 233.35578 248.02154 C 233.43402 248.16016 233.51739 248.29497 233.60279 248.42875 C 233.66271 248.5226 233.72135 248.61696 233.78469 248.70832 C 233.88071 248.84687 233.98338 248.97985 234.087 249.11243 C 234.13436 249.17302 234.17608 249.23814 234.22497 249.29743 C 234.25758 249.33697 234.2904 249.37631 234.32368 249.41526 C 235.73694 251.06957 237.75395 252.19101 240.04012 252.44556 C 240.36671 252.48193 240.69881 252.50086 241.03541 252.50086 L 272.78541 252.50086 L 336.28541 252.50086 C 341.17138 252.50086 345.10502 248.56719 345.10502 243.68124 L 345.10502 211.93124 C 345.10502 207.04529 341.17138 203.11162 336.28541 203.11162 L 281.60503 203.11162 L 281.60503 148.43124 C 281.60503 143.54527 277.67136 139.61163 272.78541 139.61163 L 241.03541 139.61163 z M 304.53541 139.61163 C 299.64944 139.61163 295.71579 143.54527 295.71579 148.43124 L 295.71579 180.18124 C 295.71579 185.06721 299.64944 189.00086 304.53541 189.00086 L 336.28541 189.00086 C 341.17138 189.00086 345.10502 185.06721 345.10502 180.18124 L 345.10502 157.25086 C 345.10502 147.47894 337.23771 139.61163 327.46579 139.61163 L 304.53541 139.61163 z M 177.53541 203.11162 C 172.64944 203.11162 168.7158 207.04529 168.7158 211.93124 L 168.7158 243.68124 C 168.7158 248.56719 172.64944 252.50086 177.53541 252.50086 L 209.28541 252.50086 C 214.17138 252.50086 218.10503 248.56719 218.10503 243.68124 L 218.10503 211.93124 C 218.10503 207.04529 214.17138 203.11162 209.28541 203.11162 L 177.53541 203.11162 z M 177.53541 266.61162 C 172.64944 266.61162 168.7158 270.54527 168.7158 275.43124 L 168.7158 298.36162 C 168.7158 308.13354 176.58311 316.00085 186.35503 316.00085 L 209.28541 316.00085 C 214.17138 316.00085 218.10503 312.06721 218.10503 307.18124 L 218.10503 275.43124 C 218.10503 270.54527 214.17138 266.61162 209.28541 266.61162 L 177.53541 266.61162 z M 241.03541 266.61162 C 236.14946 266.61162 232.21579 270.54527 232.21579 275.43124 L 232.21579 307.18124 C 232.21579 312.06721 236.14946 316.00085 241.03541 316.00085 L 272.78541 316.00085 C 277.67136 316.00085 281.60503 312.06721 281.60503 307.18124 L 281.60503 275.43124 C 281.60503 270.54527 277.67136 266.61162 272.78541 266.61162 L 241.03541 266.61162 z M 304.53541 266.61162 C 299.64944 266.61162 295.71579 270.54527 295.71579 275.43124 L 295.71579 307.18124 C 295.71579 312.06721 299.64944 316.00085 304.53541 316.00085 L 327.46579 316.00085 C 337.23771 316.00085 345.10502 308.13354 345.10502 298.36162 L 345.10502 275.43124 C 345.10502 270.54527 341.17138 266.61162 336.28541 266.61162 L 304.53541 266.61162 z " />
  </g>
</svg>
