<?xml version="1.0" encoding="UTF-8" standalone="no"?>
<!-- Created with Inkscape (http://www.inkscape.org/) -->

<svg
   width="1000"
   height="1000"
   viewBox="0 0 264.58331 264.58333"
   version="1.1"
   id="svg1"
   inkscape:version="1.2.2 (732a01da63, 2022-12-09)"
   sodipodi:docname="overlay-grid.svg"
   xmlns:inkscape="http://www.inkscape.org/namespaces/inkscape"
   xmlns:sodipodi="http://sodipodi.sourceforge.net/DTD/sodipodi-0.dtd"
   xmlns="http://www.w3.org/2000/svg"
   xmlns:svg="http://www.w3.org/2000/svg">
  <sodipodi:namedview
     id="namedview1"
     pagecolor="#4f4f4f"
     bordercolor="#ffffff"
     borderopacity="1"
     inkscape:showpageshadow="0"
     inkscape:pageopacity="0"
     inkscape:pagecheckerboard="1"
     inkscape:deskcolor="#4f4f4f"
     inkscape:document-units="px"
     inkscape:zoom="0.70092593"
     inkscape:cx="722.61558"
     inkscape:cy="342.40423"
     inkscape:window-width="1920"
     inkscape:window-height="1137"
     inkscape:window-x="1592"
     inkscape:window-y="-8"
     inkscape:window-maximized="1"
     inkscape:current-layer="layer1"
     showgrid="false" />
  <defs
     id="defs1" />
  <g
     inkscape:label="Layer 1"
     inkscape:groupmode="layer"
     id="layer1"
     transform="translate(-124.61875,-95.51458)">
    <path
       id="rect21677"
       style="fill-opacity:1;stroke-width:0;stroke-linecap:round;stroke-linejoin:round"
       d="m 186.35486,139.6118 c -9.77192,0 -17.63889,7.86697 -17.63889,17.63889 v 22.93055 c 0,4.88597 3.93348,8.81945 8.81945,8.81945 h 31.74999 c 4.88597,0 8.81945,-3.93348 8.81945,-8.81945 v -31.74999 c 0,-4.88597 -3.93348,-8.81945 -8.81945,-8.81945 z m 54.68055,0 c -4.88595,0 -8.81944,3.93348 -8.81944,8.81945 v 31.74999 c 0,4.88597 3.93349,8.81945 8.81944,8.81945 h 31.75 c 4.88595,0 8.81944,-3.93348 8.81944,-8.81945 v -31.74999 c 0,-4.88597 -3.93349,-8.81945 -8.81944,-8.81945 z m 63.5,0 c -4.88597,0 -8.81945,3.93348 -8.81945,8.81945 v 31.74999 c 0,4.88597 3.93348,8.81945 8.81945,8.81945 h 31.74999 c 4.88597,0 8.81945,-3.93348 8.81945,-8.81945 v -22.93055 c 0,-9.77192 -7.86697,-17.63889 -17.63889,-17.63889 z m -126.99999,63.5 c -4.88597,0 -8.81945,3.93349 -8.81945,8.81944 v 31.75 c 0,4.88595 3.93348,8.81944 8.81945,8.81944 h 31.74999 c 4.88597,0 8.81945,-3.93349 8.81945,-8.81944 v -31.75 c 0,-4.88595 -3.93348,-8.81944 -8.81945,-8.81944 z m 63.49999,0 c -4.88595,0 -8.81944,3.93349 -8.81944,8.81944 v 31.75 c 0,4.88595 3.93349,8.81944 8.81944,8.81944 h 31.75 c 4.88595,0 8.81944,-3.93349 8.81944,-8.81944 v -31.75 c 0,-4.88595 -3.93349,-8.81944 -8.81944,-8.81944 z m 63.5,0 c -4.88597,0 -8.81945,3.93349 -8.81945,8.81944 v 31.75 c 0,4.88595 3.93348,8.81944 8.81945,8.81944 h 31.74999 c 4.88597,0 8.81945,-3.93349 8.81945,-8.81944 v -31.75 c 0,-4.88595 -3.93348,-8.81944 -8.81945,-8.81944 z m -126.99999,63.49999 c -4.88597,0 -8.81945,3.93348 -8.81945,8.81945 v 22.93055 c 0,9.77192 7.86697,17.63889 17.63889,17.63889 h 22.93055 c 4.88597,0 8.81945,-3.93348 8.81945,-8.81945 v -31.74999 c 0,-4.88597 -3.93348,-8.81945 -8.81945,-8.81945 z m 63.49999,0 c -4.88595,0 -8.81944,3.93348 -8.81944,8.81945 v 31.74999 c 0,4.88597 3.93349,8.81945 8.81944,8.81945 h 31.75 c 4.88595,0 8.81944,-3.93348 8.81944,-8.81945 v -31.74999 c 0,-4.88597 -3.93349,-8.81945 -8.81944,-8.81945 z m 63.5,0 c -4.88597,0 -8.81945,3.93348 -8.81945,8.81945 v 31.74999 c 0,4.88597 3.93348,8.81945 8.81945,8.81945 h 22.93055 c 9.77192,0 17.63889,-7.86697 17.63889,-17.63889 v -22.93055 c 0,-4.88597 -3.93348,-8.81945 -8.81945,-8.81945 z" />
  </g>
</svg>
