<?xml version="1.0" encoding="UTF-8" standalone="no"?>
<!-- Created with Inkscape (http://www.inkscape.org/) -->

<svg
   width="680"
   height="1002.6257"
   viewBox="0 0 179.91665 265.27804"
   version="1.1"
   id="svg1"
   inkscape:version="1.4 (e7c3feb100, 2024-10-09)"
   sodipodi:docname="overlay.svg"
   xmlns:inkscape="http://www.inkscape.org/namespaces/inkscape"
   xmlns:sodipodi="http://sodipodi.sourceforge.net/DTD/sodipodi-0.dtd"
   xmlns="http://www.w3.org/2000/svg"
   xmlns:svg="http://www.w3.org/2000/svg">
  <sodipodi:namedview
     id="namedview1"
     pagecolor="#4f4f4f"
     bordercolor="#ffffff"
     borderopacity="1"
     inkscape:showpageshadow="0"
     inkscape:pageopacity="0"
     inkscape:pagecheckerboard="1"
     inkscape:deskcolor="#4f4f4f"
     inkscape:document-units="px"
     inkscape:zoom="0.49562948"
     inkscape:cx="522.56779"
     inkscape:cy="134.17281"
     inkscape:window-width="1920"
     inkscape:window-height="1052"
     inkscape:window-x="0"
     inkscape:window-y="0"
     inkscape:window-maximized="1"
     inkscape:current-layer="layer1" />
  <defs
     id="defs1" />
  <g
     inkscape:label="Layer 1"
     inkscape:groupmode="layer"
     id="layer1"
     transform="translate(-124.61875,-95.51458)">
    <path
       d="m 165.62916,95.51458 c -0.79375,0 -1.32291,0 -2.11666,0.264583 -3.70417,0.79375 -6.08542,4.762497 -5.29167,8.466667 l 11.37708,60.06041 c 0.26459,3.175 3.43959,6.08542 6.87917,6.35 h 76.72916 c 3.175,-0.26458 6.35,-3.175 6.61459,-6.35 l 11.1125,-57.67916 c 1.5875,-6.35 -8.73125,-11.377083 -12.7,-6.35 l -20.6375,22.75417 -16.13958,-23.54792 c -2.64584,-3.96875 -8.99584,-3.96875 -11.64167,0 L 193.675,123.03125 170.92083,97.89583 c -1.32292,-1.322917 -3.43958,-2.38125 -5.29167,-2.38125 z m 16.13959,99.48333 c -2.38125,0 -6.08542,0.52916 -11.1125,1.05833 -5.29167,0.52917 -11.90625,1.05833 -18.25625,1.85208 l -23.28333,2.64584 c -1.05834,0.26458 -2.11667,0.79375 -2.91042,1.5875 -1.05833,1.05833 -1.5875,2.38125 -1.5875,3.96875 v 30.1625 30.42708 c 0,1.85208 1.05833,3.43958 2.64583,4.49791 l 15.61042,8.20209 12.43542,6.35 v 26.45833 29.63333 c 0.26458,2.11667 1.85208,3.96875 3.70416,4.7625 41.53958,18.78542 80.43333,19.05 112.18333,0 1.32292,-1.05833 2.38125,-2.91042 2.38125,-4.7625 v -29.63333 -26.45833 l 12.7,-6.35 15.61041,-8.20209 c 1.05834,-0.52916 1.5875,-1.5875 2.11667,-2.38125 0.26458,-0.79375 0.26458,-1.32291 0.52917,-2.11666 v -30.42708 -30.1625 c 0,-2.64584 -2.11667,-5.29167 -4.7625,-5.55625 l -23.01875,-2.38125 c -6.61458,-0.79375 -12.7,-1.5875 -17.72708,-2.11667 -5.02709,-0.52917 -8.99584,-1.05833 -11.1125,-1.05833 h -0.52917 -5.02708 c -2.91042,-0.26459 -5.55625,2.38125 -5.55625,5.02708 v 8.20208 c 0,4.7625 -0.52917,9.26042 -1.05834,10.58334 -1.05833,2.91041 -5.82083,8.20208 -10.58333,10.58333 -3.70416,1.5875 -3.70416,1.5875 -10.58333,1.5875 -6.87917,0 -6.87917,0.26458 -10.58333,-1.5875 -5.02709,-2.38125 -9.525,-7.67292 -10.58334,-10.58333 -0.52916,-1.32292 -1.05833,-5.82084 -1.05833,-10.58334 v -8.20208 c -0.26458,-0.79375 -0.52917,-1.85208 -1.05833,-2.38125 -1.05834,-1.5875 -2.64584,-2.64583 -4.49792,-2.64583 z m -14.81667,28.31041 0.52917,1.85209 c 2.91041,8.73125 6.08541,14.2875 10.58333,18.78541 3.96875,3.96875 10.05417,6.87917 16.13958,9.525 5.55625,2.38125 10.31875,4.23334 15.34584,4.49792 v 39.42291 39.42292 h -1.5875 c -2.91042,0 -7.9375,-0.79375 -10.58334,-1.32292 H 196.85 c -2.64584,-0.79375 -8.20209,-2.64583 -11.1125,-4.23333 l -3.175,-1.32292 -0.26459,-22.75416 v -0.52917 l 0.26459,-33.86667 c 0,-1.5875 -0.52917,-3.175 -1.85209,-3.96875 -0.26458,-0.26458 -0.26458,-0.52916 -0.52916,-0.52916 -8.20209,-4.23334 -10.31875,-5.02709 -11.64167,-5.55625 -1.32292,-0.52917 -1.32292,-0.79375 -7.14375,-3.70417 l -10.05416,-5.55625 v -14.55208 -13.49375 l 4.49791,-0.52917 c 4.7625,-0.52916 9.78958,-1.5875 11.1125,-1.5875 z"
       id="path48"
       style="stroke-width:0.264583" />
  </g>
</svg>
