<?xml version="1.0" encoding="UTF-8" standalone="no"?>
<!-- Created with Inkscape (http://www.inkscape.org/) -->

<svg
   width="79.375mm"
   height="79.375mm"
   viewBox="0 0 79.375 79.375"
   version="1.1"
   id="svg472"
   inkscape:version="1.2.2 (732a01da63, 2022-12-09)"
   sodipodi:docname="shade.svg"
   xmlns:inkscape="http://www.inkscape.org/namespaces/inkscape"
   xmlns:sodipodi="http://sodipodi.sourceforge.net/DTD/sodipodi-0.dtd"
   xmlns="http://www.w3.org/2000/svg"
   xmlns:svg="http://www.w3.org/2000/svg">
  <sodipodi:namedview
     id="namedview474"
     pagecolor="#505050"
     bordercolor="#ffffff"
     borderopacity="1"
     inkscape:showpageshadow="0"
     inkscape:pageopacity="0"
     inkscape:pagecheckerboard="1"
     inkscape:deskcolor="#505050"
     inkscape:document-units="mm"
     showgrid="false"
     inkscape:zoom="2.3786088"
     inkscape:cx="124.23228"
     inkscape:cy="169.00635"
     inkscape:window-width="1920"
     inkscape:window-height="1137"
     inkscape:window-x="1592"
     inkscape:window-y="-8"
     inkscape:window-maximized="1"
     inkscape:current-layer="layer1" />
  <defs
     id="defs469" />
  <g
     inkscape:label="Layer 1"
     inkscape:groupmode="layer"
     id="layer1"
     transform="translate(-28.920975,-59.17675)">
    <path
       id="path645"
       style="stroke-width:0;stroke-linecap:round;stroke-linejoin:round"
       d="M 68.608475 64.29375 A 34.570714 34.570714 0 0 0 34.037975 98.86425 A 34.570714 34.570714 0 0 0 68.608475 133.43475 A 34.570714 34.570714 0 0 0 103.17897 98.86425 A 34.570714 34.570714 0 0 0 68.608475 64.29375 z M 68.621911 72.382146 A 26.482201 26.482201 0 0 1 95.090579 98.86425 A 26.482201 26.482201 0 0 1 68.608475 125.34635 A 26.482201 26.482201 0 0 1 42.126371 98.868384 A 19.590071 19.590071 0 0 0 59.389399 109.23571 A 19.590071 19.590071 0 0 0 78.979935 89.645174 A 19.590071 19.590071 0 0 0 68.621911 72.382146 z " />
  </g>
</svg>
