<?xml version="1.0" encoding="UTF-8" standalone="no"?>
<!-- Created with Inkscape (http://www.inkscape.org/) -->

<svg
   width="680"
   height="1002.6257"
   viewBox="0 0 179.91665 265.27804"
   version="1.1"
   id="svg1"
   inkscape:version="1.4 (e7c3feb100, 2024-10-09)"
   sodipodi:docname="blend.svg"
   xmlns:inkscape="http://www.inkscape.org/namespaces/inkscape"
   xmlns:sodipodi="http://sodipodi.sourceforge.net/DTD/sodipodi-0.dtd"
   xmlns="http://www.w3.org/2000/svg"
   xmlns:svg="http://www.w3.org/2000/svg">
  <sodipodi:namedview
     id="namedview1"
     pagecolor="#4f4f4f"
     bordercolor="#ffffff"
     borderopacity="1"
     inkscape:showpageshadow="0"
     inkscape:pageopacity="0"
     inkscape:pagecheckerboard="1"
     inkscape:deskcolor="#4f4f4f"
     inkscape:document-units="px"
     inkscape:zoom="0.49562948"
     inkscape:cx="521.55897"
     inkscape:cy="456.99461"
     inkscape:window-width="1920"
     inkscape:window-height="1008"
     inkscape:window-x="0"
     inkscape:window-y="1080"
     inkscape:window-maximized="1"
     inkscape:current-layer="layer1" />
  <defs
     id="defs1" />
  <g
     inkscape:label="Layer 1"
     inkscape:groupmode="layer"
     id="layer1"
     transform="translate(-124.61875,-95.51458)">
    <path
       d="m 200.37313,157.13386 c -47.34648,0 -75.75438,37.8772 -75.75438,56.81579 0,18.93859 9.4693,33.14254 28.4079,33.14254 18.93859,0 28.40789,4.73465 28.40789,18.9386 0,18.93859 14.20394,33.14254 33.14254,33.14254 61.55044,0 89.95833,-33.14254 89.95833,-66.28509 0,-56.81578 -47.34649,-75.75438 -104.16228,-75.75438 z m -11.74193,18.9386 c 6.43913,0 11.74193,5.30281 11.74193,11.74193 0,6.62851 -5.3028,11.93131 -11.74193,11.93131 -6.6285,0 -11.93131,-5.3028 -11.93131,-11.93131 0,-6.43912 5.30281,-11.74193 11.93131,-11.74193 z m 37.8772,0 c 6.43912,0 11.74192,5.30281 11.74192,11.74193 0,6.62851 -5.3028,11.93131 -11.74192,11.93131 -6.62851,0 -11.93132,-5.3028 -11.93132,-11.93131 0,-6.43912 5.30281,-11.74193 11.93132,-11.74193 z m 37.87719,18.9386 c 6.43912,0 11.74193,5.3028 11.74193,11.74192 0,6.62851 -5.30281,11.93132 -11.74193,11.93132 -6.62851,0 -11.93132,-5.30281 -11.93132,-11.93132 0,-6.43912 5.30281,-11.74192 11.93132,-11.74192 z m -108.89693,9.46929 c 6.43912,0 11.74193,5.30281 11.74193,11.74193 0,6.62851 -5.30281,11.93132 -11.74193,11.93132 -6.62851,0 -11.93132,-5.30281 -11.93132,-11.93132 0,-6.43912 5.30281,-11.74193 11.93132,-11.74193 z m 59.08842,47.34649 c 7.76482,0 14.20395,6.43913 14.20395,14.20395 0,7.76482 -6.43913,14.20394 -14.20395,14.20394 -7.76482,0 -14.20395,-6.43912 -14.20395,-14.20394 0,-7.76482 6.43913,-14.20395 14.20395,-14.20395 z"
       id="path47"
       style="stroke-width:0.189386" />
  </g>
</svg>
