<?xml version="1.0" encoding="UTF-8" standalone="no"?>
<!-- Created with Inkscape (http://www.inkscape.org/) -->

<svg
   width="1000"
   height="1000"
   viewBox="0 0 264.58331 264.58333"
   version="1.1"
   id="svg1"
   inkscape:version="1.4.2 (ebf0e940d0, 2025-05-08)"
   sodipodi:docname="shade-lighten.svg"
   xmlns:inkscape="http://www.inkscape.org/namespaces/inkscape"
   xmlns:sodipodi="http://sodipodi.sourceforge.net/DTD/sodipodi-0.dtd"
   xmlns="http://www.w3.org/2000/svg"
   xmlns:svg="http://www.w3.org/2000/svg">
  <sodipodi:namedview
     id="namedview1"
     pagecolor="#4f4f4f"
     bordercolor="#ffffff"
     borderopacity="1"
     inkscape:showpageshadow="0"
     inkscape:pageopacity="0"
     inkscape:pagecheckerboard="1"
     inkscape:deskcolor="#4f4f4f"
     inkscape:document-units="px"
     inkscape:zoom="0.49562949"
     inkscape:cx="416.64188"
     inkscape:cy="534.6736"
     inkscape:window-width="1920"
     inkscape:window-height="1136"
     inkscape:window-x="0"
     inkscape:window-y="0"
     inkscape:window-maximized="1"
     inkscape:current-layer="layer1"
     showgrid="false" />
  <defs
     id="defs1" />
  <g
     inkscape:label="Layer 1"
     inkscape:groupmode="layer"
     id="layer1"
     transform="translate(-124.61875,-95.51458)">
    <path
       id="path46"
       style="stroke-width:0.308372"
       d="M 174.26688 95.51458 C 160.49293 95.720167 148.77476 100.65394 139.11244 110.31626 C 129.45011 119.97859 124.61875 131.59434 124.61875 145.16271 L 124.61875 310.44977 C 124.61875 323.81256 129.45011 335.42831 139.11244 345.29622 C 148.77476 355.16413 160.49293 360.0979 174.26688 360.0979 L 339.24595 360.0979 C 353.0199 359.89232 364.73806 354.95855 374.40039 345.29622 C 384.06272 335.63389 388.89356 324.01814 388.89356 310.44977 L 388.89356 145.16271 C 388.89356 131.79992 384.06272 120.18417 374.40039 110.31626 C 364.73806 100.44835 353.0199 95.51458 339.24595 95.51458 L 174.26688 95.51458 z M 234.28854 131.76249 L 279.2677 131.76249 C 281.91354 131.76249 284.0302 134.14374 284.0302 136.78958 L 284.0302 200.28957 L 348.05936 200.28957 C 350.70519 200.28957 352.82186 202.9354 352.82186 205.58124 L 352.82186 250.03124 C 352.82186 251.61874 352.29269 252.67707 351.23436 253.73541 C 350.17602 254.79374 349.64686 255.05832 348.05936 255.05832 L 284.0302 255.05832 L 284.0302 318.8229 C 284.0302 319.88124 283.50104 321.46875 282.4427 322.26249 C 281.38437 323.05624 280.32604 323.84999 279.2677 323.84999 L 234.28854 323.84999 C 233.23021 323.84999 232.43646 323.32083 231.37812 322.26249 C 230.31979 321.20416 229.79062 319.88124 229.79062 318.8229 L 229.79062 255.05832 L 165.76146 255.05832 C 164.70313 255.05832 163.64479 254.79373 162.58646 253.73541 C 161.52813 252.67707 160.99896 251.08957 160.99896 250.03124 L 160.99896 205.58124 C 160.99896 202.93541 163.11563 200.28957 165.76146 200.28957 L 229.79062 200.28957 L 229.79062 136.78958 C 229.79062 134.14374 231.90729 131.76249 234.28854 131.76249 z " />
  </g>
</svg>
