<?xml version="1.0" encoding="UTF-8" standalone="no"?>
<!-- Created with Inkscape (http://www.inkscape.org/) -->

<svg
   width="1000"
   height="1000"
   viewBox="0 0 264.58331 264.58333"
   version="1.1"
   id="svg1"
   inkscape:version="1.2.2 (732a01da63, 2022-12-09)"
   sodipodi:docname="size-3.svg"
   xmlns:inkscape="http://www.inkscape.org/namespaces/inkscape"
   xmlns:sodipodi="http://sodipodi.sourceforge.net/DTD/sodipodi-0.dtd"
   xmlns="http://www.w3.org/2000/svg"
   xmlns:svg="http://www.w3.org/2000/svg">
  <sodipodi:namedview
     id="namedview1"
     pagecolor="#4f4f4f"
     bordercolor="#ffffff"
     borderopacity="1"
     inkscape:showpageshadow="0"
     inkscape:pageopacity="0"
     inkscape:pagecheckerboard="1"
     inkscape:deskcolor="#4f4f4f"
     inkscape:document-units="px"
     inkscape:zoom="0.70092593"
     inkscape:cx="722.61558"
     inkscape:cy="342.40423"
     inkscape:window-width="1920"
     inkscape:window-height="1137"
     inkscape:window-x="1592"
     inkscape:window-y="-8"
     inkscape:window-maximized="1"
     inkscape:current-layer="layer1"
     showgrid="false" />
  <defs
     id="defs1" />
  <g
     inkscape:label="Layer 1"
     inkscape:groupmode="layer"
     id="layer1"
     transform="translate(-124.61875,-95.51458)">
    <path
       id="rect21677"
       style="fill-opacity:1;stroke-width:0;stroke-linecap:round;stroke-linejoin:round"
       d="M 151.07708 95.51458 C 136.4192 95.51458 124.61875 107.31503 124.61875 121.97291 L 124.61875 156.36874 C 124.61875 163.69769 130.51897 169.59791 137.84792 169.59791 L 185.47291 169.59791 C 192.80186 169.59791 198.70208 163.69769 198.70208 156.36874 L 198.70208 108.74375 C 198.70208 101.4148 192.80186 95.51458 185.47291 95.51458 L 151.07708 95.51458 z M 233.09791 95.51458 C 225.76898 95.51458 219.86875 101.4148 219.86875 108.74375 L 219.86875 156.36874 C 219.86875 163.69769 225.76898 169.59791 233.09791 169.59791 L 280.72291 169.59791 C 288.05184 169.59791 293.95207 163.69769 293.95207 156.36874 L 293.95207 108.74375 C 293.95207 101.4148 288.05184 95.51458 280.72291 95.51458 L 233.09791 95.51458 z M 328.34791 95.51458 C 321.01896 95.51458 315.11874 101.4148 315.11874 108.74375 L 315.11874 156.36874 C 315.11874 163.69769 321.01896 169.59791 328.34791 169.59791 L 375.9729 169.59791 C 383.30185 169.59791 389.20207 163.69769 389.20207 156.36874 L 389.20207 121.97291 C 389.20207 107.31503 377.40162 95.51458 362.74374 95.51458 L 328.34791 95.51458 z M 137.84792 190.76458 C 130.51897 190.76458 124.61875 196.66481 124.61875 203.99374 L 124.61875 251.61874 C 124.61875 258.94767 130.51897 264.8479 137.84792 264.8479 L 185.47291 264.8479 C 192.80186 264.8479 198.70208 258.94767 198.70208 251.61874 L 198.70208 203.99374 C 198.70208 196.66481 192.80186 190.76458 185.47291 190.76458 L 137.84792 190.76458 z M 233.09791 190.76458 C 225.76898 190.76458 219.86875 196.66481 219.86875 203.99374 L 219.86875 251.61874 C 219.86875 258.94767 225.76898 264.8479 233.09791 264.8479 L 280.72291 264.8479 C 288.05184 264.8479 293.95207 258.94767 293.95207 251.61874 L 293.95207 203.99374 C 293.95207 196.66481 288.05184 190.76458 280.72291 190.76458 L 233.09791 190.76458 z M 328.34791 190.76458 C 321.01896 190.76458 315.11874 196.66481 315.11874 203.99374 L 315.11874 251.61874 C 315.11874 258.94767 321.01896 264.8479 328.34791 264.8479 L 375.9729 264.8479 C 383.30185 264.8479 389.20207 258.94767 389.20207 251.61874 L 389.20207 203.99374 C 389.20207 196.66481 383.30185 190.76458 375.9729 190.76458 L 328.34791 190.76458 z M 137.84792 286.01457 C 130.51897 286.01457 124.61875 291.91479 124.61875 299.24374 L 124.61875 333.63957 C 124.61875 348.29745 136.4192 360.0979 151.07708 360.0979 L 185.47291 360.0979 C 192.80186 360.0979 198.70208 354.19768 198.70208 346.86873 L 198.70208 299.24374 C 198.70208 291.91479 192.80186 286.01457 185.47291 286.01457 L 137.84792 286.01457 z M 233.09791 286.01457 C 225.76898 286.01457 219.86875 291.91479 219.86875 299.24374 L 219.86875 346.86873 C 219.86875 354.19768 225.76898 360.0979 233.09791 360.0979 L 280.72291 360.0979 C 288.05184 360.0979 293.95207 354.19768 293.95207 346.86873 L 293.95207 299.24374 C 293.95207 291.91479 288.05184 286.01457 280.72291 286.01457 L 233.09791 286.01457 z M 328.34791 286.01457 C 321.01896 286.01457 315.11874 291.91479 315.11874 299.24374 L 315.11874 346.86873 C 315.11874 354.19768 321.01896 360.0979 328.34791 360.0979 L 362.74374 360.0979 C 377.40162 360.0979 389.20207 348.29745 389.20207 333.63957 L 389.20207 299.24374 C 389.20207 291.91479 383.30185 286.01457 375.9729 286.01457 L 328.34791 286.01457 z " />
  </g>
</svg>
