<?xml version="1.0" encoding="UTF-8" standalone="no"?>
<!-- Created with Inkscape (http://www.inkscape.org/) -->

<svg
   width="95.005867"
   height="103.82211"
   viewBox="0 0 25.136968 27.469601"
   version="1.1"
   id="svg5"
   inkscape:version="1.2.2 (732a01da63, 2022-12-09)"
   sodipodi:docname="backface-culling.svg"
   xmlns:inkscape="http://www.inkscape.org/namespaces/inkscape"
   xmlns:sodipodi="http://sodipodi.sourceforge.net/DTD/sodipodi-0.dtd"
   xmlns="http://www.w3.org/2000/svg"
   xmlns:svg="http://www.w3.org/2000/svg">
  <sodipodi:namedview
     id="namedview7"
     pagecolor="#505050"
     bordercolor="#ffffff"
     borderopacity="1"
     inkscape:showpageshadow="0"
     inkscape:pageopacity="0"
     inkscape:pagecheckerboard="1"
     inkscape:deskcolor="#505050"
     inkscape:document-units="px"
     showgrid="false"
     inkscape:zoom="4.7572176"
     inkscape:cx="67.791728"
     inkscape:cy="47.086347"
     inkscape:window-width="1920"
     inkscape:window-height="1137"
     inkscape:window-x="1592"
     inkscape:window-y="-8"
     inkscape:window-maximized="1"
     inkscape:current-layer="layer1" />
  <defs
     id="defs2">
    <inkscape:path-effect
       effect="powerstroke"
       id="path-effect3614"
       is_visible="true"
       lpeversion="1"
       offset_points="0,4.9921383"
       not_jump="false"
       sort_points="true"
       interpolator_type="CubicBezierJohan"
       interpolator_beta="0.2"
       start_linecap_type="zerowidth"
       linejoin_type="extrp_arc"
       miter_limit="4"
       scale_width="1"
       end_linecap_type="zerowidth" />
  </defs>
  <g
     inkscape:label="Layer 1"
     inkscape:groupmode="layer"
     id="layer1"
     transform="translate(-47.462735,-16.537423)">
    <g
       id="path6658"
       transform="rotate(180,60.031219,30.272222)">
      <path
         id="path6682"
         style="color:#000000;stroke:none;stroke-width:1.00012;stroke-linecap:round;stroke-linejoin:round;stroke-dasharray:none;paint-order:stroke fill markers"
         d="m 59.892984,16.544726 a 1.3230489,1.3230489 0 0 0 -0.523999,0.170016 l -9.259383,5.345927 a 1.3230489,1.3230489 0 0 0 0,2.290816 l 9.259383,5.347477 a 1.3230489,1.3230489 0 0 0 1.324467,0 l 9.2599,-5.347477 a 1.3230489,1.3230489 0 0 0 0,-2.290816 l -9.2599,-5.345927 a 1.3230489,1.3230489 0 0 0 -0.800468,-0.170016 z m 11.305253,8.777242 a 1.3230489,1.3230489 0 0 0 -0.584977,0.176217 l -9.2599,5.347477 a 1.3230489,1.3230489 0 0 0 -0.659908,1.1467 v 10.691337 a 1.3230489,1.3230489 0 0 0 1.984375,1.144633 l 9.2599,-5.345927 a 1.3230489,1.3230489 0 0 0 0.661975,-1.144633 V 26.644368 a 1.3230489,1.3230489 0 0 0 -1.401465,-1.3224 z m -22.550561,0.0062 a 1.3230489,1.3230489 0 0 0 -0.522449,0.170016 1.3230489,1.3230489 0 0 0 -0.662492,1.146183 v 10.693404 a 1.3230489,1.3230489 0 0 0 0.662492,1.144633 l 9.259383,5.347477 a 1.3230489,1.3230489 0 0 0 1.984375,-1.146183 V 31.992362 a 1.3230489,1.3230489 0 0 0 -0.659908,-1.1467 L 49.44711,25.498185 a 1.3230489,1.3230489 0 0 0 -0.799434,-0.170016 z" />
    </g>
  </g>
</svg>
