<?xml version="1.0" encoding="UTF-8" standalone="no"?>
<!-- Created with Inkscape (http://www.inkscape.org/) -->

<svg
   width="961.56177"
   height="941.22095"
   viewBox="0 0 254.4132 249.03137"
   version="1.1"
   id="svg1"
   inkscape:version="1.4 (e7c3feb100, 2024-10-09)"
   sodipodi:docname="brush.svg"
   xmlns:inkscape="http://www.inkscape.org/namespaces/inkscape"
   xmlns:sodipodi="http://sodipodi.sourceforge.net/DTD/sodipodi-0.dtd"
   xmlns="http://www.w3.org/2000/svg"
   xmlns:svg="http://www.w3.org/2000/svg">
  <sodipodi:namedview
     id="namedview1"
     pagecolor="#4f4f4f"
     bordercolor="#ffffff"
     borderopacity="1"
     inkscape:showpageshadow="0"
     inkscape:pageopacity="0"
     inkscape:pagecheckerboard="1"
     inkscape:deskcolor="#4f4f4f"
     inkscape:document-units="px"
     inkscape:zoom="0.49562948"
     inkscape:cx="522.56779"
     inkscape:cy="134.17281"
     inkscape:window-width="1920"
     inkscape:window-height="1052"
     inkscape:window-x="0"
     inkscape:window-y="0"
     inkscape:window-maximized="1"
     inkscape:current-layer="layer1" />
  <defs
     id="defs1" />
  <g
     inkscape:label="Layer 1"
     inkscape:groupmode="layer"
     id="layer1"
     transform="translate(-96.572915,-84.137497)">
    <path
       d="m 127.84185,255.96623 q 10.05417,-8.99583 22.48958,-7.67291 12.43542,1.32291 23.01875,11.90624 11.1125,10.58334 12.7,23.01875 1.5875,12.43542 -7.9375,21.96042 -22.75416,22.225 -60.32499,26.9875 -22.225002,3.175 -21.166669,-3.70417 0,-1.05833 1.5875,-2.64583 13.758329,-15.875 16.933329,-38.36458 3.175,-22.48959 12.7,-31.48542 z M 350.09184,85.045407 q 6.87917,6.879166 -39.15833,65.616663 -46.0375,58.7375 -77.25833,89.42916 -10.05417,10.05417 -32.80833,27.51667 -2.11667,1.5875 -4.23333,-2.11667 -4.7625,-8.99583 -12.7,-16.93333 -8.46667,-8.46667 -17.4625,-12.7 -4.23334,-1.5875 -2.11667,-4.23333 16.93333,-22.225 27.51667,-32.27917 31.22083,-30.69166 91.01666,-75.93541 59.79583,-45.243749 67.20416,-38.364583 z"
       id="path47"
       style="stroke-width:0.264583" />
  </g>
</svg>
