<?xml version="1.0" encoding="UTF-8" standalone="no"?>
<!-- Created with Inkscape (http://www.inkscape.org/) -->

<svg
   width="961.56177"
   height="941.22095"
   viewBox="0 0 254.4132 249.03137"
   version="1.1"
   id="svg1"
   inkscape:version="1.2.2 (732a01da63, 2022-12-09)"
   sodipodi:docname="contiguous.svg"
   xmlns:inkscape="http://www.inkscape.org/namespaces/inkscape"
   xmlns:sodipodi="http://sodipodi.sourceforge.net/DTD/sodipodi-0.dtd"
   xmlns="http://www.w3.org/2000/svg"
   xmlns:svg="http://www.w3.org/2000/svg">
  <sodipodi:namedview
     id="namedview1"
     pagecolor="#4f4f4f"
     bordercolor="#ffffff"
     borderopacity="1"
     inkscape:showpageshadow="0"
     inkscape:pageopacity="0"
     inkscape:pagecheckerboard="1"
     inkscape:deskcolor="#4f4f4f"
     inkscape:document-units="px"
     inkscape:zoom="0.49562948"
     inkscape:cx="802.01041"
     inkscape:cy="387.38616"
     inkscape:window-width="1920"
     inkscape:window-height="1137"
     inkscape:window-x="-8"
     inkscape:window-y="-8"
     inkscape:window-maximized="1"
     inkscape:current-layer="layer1"
     showgrid="false" />
  <defs
     id="defs1" />
  <g
     inkscape:label="Layer 1"
     inkscape:groupmode="layer"
     id="layer1"
     transform="translate(-96.572915,-84.137497)">
    <path
       id="path46"
       style="stroke-width:0.297038;fill:#000000;stroke:none"
       d="M 156.72325 84.565378 C 148.70322 84.565378 141.5743 91.3973 141.5743 99.714323 C 141.5743 103.57582 143.3566 107.14021 146.32698 110.11059 L 179.29809 143.67598 L 98.800686 224.47053 C 95.830312 227.14383 95.830312 232.4907 98.800686 235.46107 L 193.85276 330.51314 C 196.82314 333.48352 201.57573 333.48352 204.24902 330.51314 L 322.1736 212.88622 C 325.14399 209.91583 325.14399 205.16315 322.1736 202.19282 L 227.12101 107.14023 C 224.15068 104.16985 218.80419 104.16985 215.83385 107.14023 L 200.38776 122.88345 L 167.11951 89.318059 C 164.44616 86.347692 160.88172 84.565378 156.72325 84.565378 z M 221.77457 143.67598 L 275.14185 197.04326 L 168.03832 197.04326 L 221.77457 143.67598 z M 193.02542 215.01581 L 193.02594 215.01581 A 9.1037007 9.1037007 0 0 1 199.88185 217.67094 L 229.13691 246.926 A 9.1037007 9.1037007 0 0 1 229.13691 259.79912 L 199.8803 289.05521 A 9.1037007 9.1037007 0 0 1 184.3412 282.61891 L 184.34326 224.10724 A 9.1037007 9.1037007 0 0 1 193.02542 215.01581 z M 323.95541 245.85733 C 322.17318 245.85733 320.98511 246.45154 319.79701 247.63965 L 319.79701 248.23342 C 319.79701 248.8275 319.20324 248.23362 319.20324 248.8277 L 301.6777 278.82845 C 298.41029 283.58102 296.03412 288.63063 296.03412 295.16543 C 296.03412 310.31433 309.10356 323.08724 323.95541 323.08724 C 338.80722 323.08724 350.98631 310.31433 350.98631 295.16543 C 350.98631 289.22471 349.50095 284.17529 345.93649 279.42273 L 327.81719 248.8277 L 327.81719 248.23342 C 326.62903 247.04527 325.73764 245.85733 323.95541 245.85733 z M 234.56862 251.62287 A 4.9713045 4.9713045 0 0 1 234.56862 253.40623 L 234.56862 251.62287 z " />
  </g>
</svg>
