<?xml version="1.0" encoding="UTF-8" standalone="no"?>
<!-- Created with Inkscape (http://www.inkscape.org/) -->

<svg
   width="1000"
   height="750"
   viewBox="0 0 264.58331 198.4375"
   version="1.1"
   id="svg1"
   inkscape:version="1.4 (e7c3feb100, 2024-10-09)"
   sodipodi:docname="eye-closed.svg"
   xmlns:inkscape="http://www.inkscape.org/namespaces/inkscape"
   xmlns:sodipodi="http://sodipodi.sourceforge.net/DTD/sodipodi-0.dtd"
   xmlns="http://www.w3.org/2000/svg"
   xmlns:svg="http://www.w3.org/2000/svg">
  <sodipodi:namedview
     id="namedview1"
     pagecolor="#4f4f4f"
     bordercolor="#ffffff"
     borderopacity="1"
     inkscape:showpageshadow="0"
     inkscape:pageopacity="0"
     inkscape:pagecheckerboard="1"
     inkscape:deskcolor="#4f4f4f"
     inkscape:document-units="px"
     inkscape:zoom="0.49562948"
     inkscape:cx="750.56069"
     inkscape:cy="75.66136"
     inkscape:window-width="1920"
     inkscape:window-height="1052"
     inkscape:window-x="0"
     inkscape:window-y="0"
     inkscape:window-maximized="1"
     inkscape:current-layer="layer1" />
  <defs
     id="defs1" />
  <g
     inkscape:label="Layer 1"
     inkscape:groupmode="layer"
     id="layer1"
     transform="translate(-64.822917,-196.05623)">
    <path
       d="m 146.84375,350.57289 11.37708,-20.90208 q -12.7,-9.26042 -20.10833,-23.28333 -7.40834,-14.02292 -7.14375,-30.1625 0,-17.72708 8.99583,-33.07292 -33.86667,17.19792 -56.356247,52.12292 24.870827,38.1 63.235417,55.29791 z m 57.41458,-112.18333 q 0,-2.91041 -2.11667,-5.02708 -2.11667,-2.11667 -5.02708,-1.85208 -18.52084,0 -31.75,13.22916 -13.22917,13.22917 -13.22917,31.48542 0,3.175 2.11667,5.02708 2.11667,1.85208 5.02708,2.11667 2.91042,0.26458 5.02709,-2.11667 2.11666,-2.38125 2.11666,-5.02708 0,-12.7 8.99583,-21.69583 8.99584,-8.99584 21.69584,-8.99584 2.91041,0 5.02708,-2.11666 2.11667,-2.11667 2.11667,-5.02709 z m 53.44583,-28.04583 q 0,1.05834 0,1.32292 -15.61042,27.78125 -46.56667,83.60833 -30.95625,55.82708 -46.56666,83.60833 l -7.40833,13.22916 q -1.32292,2.38125 -3.96875,2.38125 -1.85209,0 -19.84375,-10.31875 -2.38125,-1.5875 -2.38125,-4.23333 0,-1.85208 6.61458,-12.96458 -21.16667,-9.525 -38.893748,-25.4 -17.727082,-15.875 -30.956248,-36.24792 -2.910417,-4.49791 -2.910417,-10.05416 0,-5.55625 2.910417,-10.31875 22.754165,-34.66042 56.091666,-54.76875 33.3375,-20.10833 73.28958,-20.10833 13.22916,0 26.45833,2.64583 l 8.20208,-14.2875 q 1.32292,-2.38125 3.96875,-2.38125 0.79375,0 2.64583,0.79375 1.85209,0.79375 4.7625,2.38125 2.91042,1.5875 4.7625,2.64584 1.85209,1.05833 4.7625,2.64583 2.91042,1.5875 2.64584,1.85208 2.38125,1.32292 2.38125,3.96875 z m 5.55625,65.88125 q 0,20.6375 -11.64167,37.57083 -11.64167,16.93333 -30.95625,24.34167 l 41.53958,-74.34792 q 1.05834,6.87917 1.05834,12.43542 z m 66.14583,19.05 q 0,5.02708 -2.91042,10.05416 -5.82083,9.525 -16.13958,21.43125 -22.225,25.4 -51.32917,39.42292 -29.10416,14.02291 -61.91249,14.02291 l 10.84791,-19.57916 q 31.48542,-2.64584 57.94375,-20.10833 26.45833,-17.4625 44.71458,-45.24375 -17.19791,-26.45833 -41.80416,-43.39167 l 9.26041,-16.66875 q 14.02292,9.525 26.9875,22.75417 12.96458,13.22917 21.43125,26.9875 2.91042,5.02708 2.91042,10.31875 z"
       id="path51"
       style="stroke-width:0.264583" />
  </g>
</svg>
