<?xml version="1.0" encoding="UTF-8" standalone="no"?>
<!-- Created with Inkscape (http://www.inkscape.org/) -->

<svg
   width="1000"
   height="1000"
   viewBox="0 0 264.5833 264.58333"
   version="1.1"
   id="svg1"
   inkscape:version="1.2.2 (732a01da63, 2022-12-09)"
   sodipodi:docname="sculpt.svg"
   xmlns:inkscape="http://www.inkscape.org/namespaces/inkscape"
   xmlns:sodipodi="http://sodipodi.sourceforge.net/DTD/sodipodi-0.dtd"
   xmlns="http://www.w3.org/2000/svg"
   xmlns:svg="http://www.w3.org/2000/svg">
  <sodipodi:namedview
     id="namedview1"
     pagecolor="#4f4f4f"
     bordercolor="#ffffff"
     borderopacity="1"
     inkscape:showpageshadow="0"
     inkscape:pageopacity="0"
     inkscape:pagecheckerboard="1"
     inkscape:deskcolor="#4f4f4f"
     inkscape:document-units="px"
     inkscape:zoom="0.5"
     inkscape:cx="493"
     inkscape:cy="256"
     inkscape:window-width="1920"
     inkscape:window-height="1137"
     inkscape:window-x="-8"
     inkscape:window-y="-8"
     inkscape:window-maximized="1"
     inkscape:current-layer="g1"
     showguides="true"
     showgrid="false" />
  <defs
     id="defs1" />
  <g
     inkscape:label="Layer 1"
     inkscape:groupmode="layer"
     id="layer1"
     transform="translate(-90.805757,-110.59586)">
    <g
       id="g1"
       transform="matrix(0.96715517,0,0,0.96715517,9.90897,-39.207178)">
      <g
         id="g1045"
         transform="translate(-0.49160239,16.414137)">
        <rect
           style="stroke-width:29.9612;paint-order:stroke fill markers"
           id="rect355"
           width="164.14117"
           height="164.14117"
           x="-373.74521"
           y="171.67763"
           ry="26.149836"
           transform="rotate(-90)" />
        <path
           id="path1048"
           style="stroke-width:29.9612;paint-order:stroke fill markers"
           d="m 116.9639,292.88165 c 0,14.48699 11.66286,26.14985 26.14985,26.14985 h 2.71592 v -83.27761 c 0,-0.44313 0.006,-0.88488 0.0171,-1.32563 0.0115,-0.44075 0.0285,-0.88046 0.0513,-1.31869 0.0228,-0.43823 0.051,-0.87511 0.085,-1.31067 0.034,-0.43556 0.0736,-0.8699 0.11862,-1.30266 0.045,-0.43275 0.0958,-0.86377 0.15174,-1.29357 0.0559,-0.4298 0.11715,-0.85833 0.1838,-1.28503 0.0667,-0.4267 0.13861,-0.85141 0.21587,-1.27487 0.0772,-0.42346 0.15967,-0.84572 0.24738,-1.26579 0.0877,-0.42007 0.18088,-0.83803 0.27892,-1.25457 0.098,-0.41653 0.20116,-0.83155 0.30936,-1.24441 0.10821,-0.41286 0.22106,-0.82362 0.33929,-1.23266 0.11823,-0.40905 0.24164,-0.81637 0.36975,-1.22145 0.25622,-0.81015 0.53223,-1.61205 0.82712,-2.40548 0.29488,-0.79342 0.60853,-1.5781 0.94092,-2.35365 0.3324,-0.77555 0.68332,-1.5421 1.05207,-2.29862 0.36875,-0.75651 0.75551,-1.50298 1.15946,-2.2393 0.40395,-0.73633 0.82512,-1.46235 1.26311,-2.17733 0.438,-0.71498 0.89269,-1.41913 1.36357,-2.11161 0.47089,-0.69248 0.95819,-1.37332 1.46082,-2.04215 0.50262,-0.66882 1.02058,-1.32546 1.55378,-1.96948 0.53321,-0.64402 1.08145,-1.27555 1.64408,-1.89361 0.56264,-0.61805 1.13974,-1.22252 1.73065,-1.81346 0.5909,-0.59093 1.19544,-1.16798 1.81346,-1.73064 0.61802,-0.56266 1.24962,-1.11138 1.89361,-1.64462 0.64398,-0.53323 1.30068,-1.05113 1.96948,-1.55378 0.66879,-0.50265 1.34969,-0.9899 2.04214,-1.46082 0.69245,-0.47091 1.39613,-0.92554 2.11108,-1.36356 0.71495,-0.43803 1.44103,-0.85914 2.17733,-1.26312 0.73629,-0.40398 1.48282,-0.79069 2.2393,-1.15946 0.75649,-0.36878 1.5231,-0.71965 2.29862,-1.05207 0.77553,-0.33242 1.56025,-0.64655 2.35365,-0.94146 0.79341,-0.29491 1.59535,-0.57087 2.40548,-0.82711 0.40507,-0.12813 0.81241,-0.25151 1.22145,-0.36975 0.40903,-0.11824 0.8198,-0.23108 1.23266,-0.33929 0.41285,-0.10821 0.82788,-0.21133 1.24441,-0.30937 0.41654,-0.098 0.83451,-0.19118 1.25457,-0.27891 0.42007,-0.0877 0.84181,-0.17012 1.26526,-0.24739 0.42345,-0.0773 0.84871,-0.1492 1.2754,-0.21586 0.4267,-0.0667 0.85523,-0.12843 1.28503,-0.18434 0.42979,-0.0559 0.86082,-0.10619 1.29357,-0.15121 0.43275,-0.045 0.8671,-0.0846 1.30266,-0.11862 0.43556,-0.034 0.87244,-0.0622 1.31067,-0.0849 0.43823,-0.0228 0.87794,-0.0398 1.31869,-0.0513 0.44075,-0.0115 0.8825,-0.0176 1.32563,-0.0176 h 83.27761 v -2.71378 c 0,-14.48699 -11.66286,-26.14985 -26.14985,-26.14985 H 143.11375 c -14.48699,0 -26.14985,11.66286 -26.14985,26.14985 z" />
      </g>
      <g
         id="g1023"
         transform="matrix(0.82531241,0,0,0.82531326,8.0639717,93.924675)">
        <g
           id="rect350"
           transform="translate(7.9334904,-6.5656472)">
          <path
             style="color:#000000;stroke-linecap:round;stroke-linejoin:round;-inkscape-stroke:none;paint-order:stroke fill markers"
             d="m 156.69336,331.48828 a 5.1650663,5.1650663 0 0 0 -5.62695,1.11914 l -50.59571,50.5957 a 5.1650663,5.1650663 0 0 0 3.65235,8.81641 h 50.59375 a 5.1650663,5.1650663 0 0 0 5.16601,-5.16601 v -50.59375 a 5.1650663,5.1650663 0 0 0 -3.18945,-4.77149 z m -7.14063,17.24024 v 32.96093 h -32.96289 z"
             id="path1013" />
          <path
             style="color:#000000;stroke-width:10.3291;stroke-linecap:round;stroke-linejoin:round;-inkscape-stroke:none;paint-order:stroke fill markers"
             d="m 154.71744,336.25944 -2e-5,50.59503 -50.59502,1e-5 z"
             id="path1015" />
        </g>
        <g
           id="rect352"
           transform="rotate(-45,-3.9586921,-12.859394)">
          <path
             style="color:#000000;stroke-linecap:round;stroke-linejoin:round;-inkscape-stroke:none;paint-order:stroke fill markers"
             d="m -173.57812,294.21484 a 5.6673667,5.6673667 0 0 0 -5.66602,5.66602 v 56.59375 a 5.6673667,5.6673667 0 0 0 5.66602,5.66601 h 18.86523 a 5.6673667,5.6673667 0 0 0 5.66602,-5.66601 v -56.59375 a 5.6673667,5.6673667 0 0 0 -5.66602,-5.66602 z m 5.66796,11.33399 h 7.5293 v 45.25976 h -7.5293 z"
             id="path1007" />
          <path
             style="color:#000000;stroke-width:11.3336;stroke-linecap:round;stroke-linejoin:round;-inkscape-stroke:none;paint-order:stroke fill markers"
             d="m -173.57784,299.88168 h 18.86431 v 56.59293 h -18.86431 z"
             id="path1009" />
        </g>
      </g>
    </g>
  </g>
</svg>
